<svg version="1.1" xmlns="http://www.w3.org/2000/svg" xmlns:xlink="http://www.w3.org/1999/xlink" width="1148" height="700"><defs><clipPath id="yDpwufMettKG"><path fill="none" stroke="none" d=" M 0 0 L 1148 0 L 1148 700 L 0 700 L 0 0 Z"/></clipPath></defs><g transform="scale(1,1)" clip-path="url(#yDpwufMettKG)"><g><rect fill="rgb(255,255,255)" stroke="none" x="0" y="0" width="1148" height="700" fill-opacity="1"/><path fill="none" stroke="rgb(0,0,0)" paint-order="fill stroke markers" d=" M 602.2125180450764 373 C 602.2125180450764 447.1235269526859 542.1235269526858 507.21251804507654 467.9999999999999 507.21251804507654 C 393.87647304731394 507.21251804507654 333.78748195492335 447.1235269526859 333.78748195492335 373 C 333.78748195492335 298.87647304731405 393.87647304731394 238.78748195492344 467.9999999999999 238.78748195492344 C 542.1235269526858 238.78748195492344 602.2125180450764 298.87647304731405 602.2125180450764 373 Z" stroke-opacity="0.6980392156862745" stroke-linecap="round" stroke-linejoin="round" stroke-miterlimit="10" stroke-width="2.5"/><path fill="none" stroke="rgb(0,0,0)" paint-order="fill stroke markers" d=" M 467.9999999999999 373 L 752.9999999999999 370" stroke-opacity="0.6980392156862745" stroke-linecap="round" stroke-linejoin="round" stroke-miterlimit="10" stroke-width="2.5"/><path fill="none" stroke="rgb(0,0,0)" paint-order="fill stroke markers" d=" M 522.9999999999999 188 L 655.9999999999999 170" stroke-opacity="0.6980392156862745" stroke-linecap="round" stroke-linejoin="round" stroke-miterlimit="10" stroke-width="2.5"/><text fill="rgb(0,0,0)" stroke="none" font-family="geogebra-sans-serif, sans-serif" font-size="16px" font-style="normal" font-weight="normal" text-decoration="normal" x="591" y="194" text-anchor="start" dominant-baseline="alphabetic" fill-opacity="1">C</text><text fill="none" stroke="rgb(255,255,255)" font-family="geogebra-sans-serif, sans-serif" font-size="16px" font-style="normal" font-weight="normal" text-decoration="normal" x="591" y="194" text-anchor="start" dominant-baseline="alphabetic" stroke-opacity="1" stroke-linejoin="bevel" stroke-miterlimit="10" stroke-width="3">C</text><text fill="rgb(0,0,0)" stroke="none" font-family="geogebra-sans-serif, sans-serif" font-size="16px" font-style="normal" font-weight="normal" text-decoration="normal" x="591" y="194" text-anchor="start" dominant-baseline="alphabetic" fill-opacity="1">C</text><path fill="none" stroke="rgb(0,0,0)" paint-order="fill stroke markers" d=" M 467.9999999999999 373 L 375.614014233474 275.64585456208204" stroke-opacity="0.6980392156862745" stroke-linecap="round" stroke-linejoin="round" stroke-miterlimit="10" stroke-width="2.5"/><path fill="rgb(77,77,255)" stroke="none" paint-order="stroke fill markers" d=" M 472.9999999999999 373 C 472.9999999999999 375.76142374915395 470.76142374915383 378 467.9999999999999 378 C 465.23857625084594 378 462.9999999999999 375.76142374915395 462.9999999999999 373 C 462.9999999999999 370.23857625084605 465.23857625084594 368 467.9999999999999 368 C 470.76142374915383 368 472.9999999999999 370.23857625084605 472.9999999999999 373 Z" fill-opacity="1"/><path fill="none" stroke="rgb(0,0,0)" paint-order="fill stroke markers" d=" M 472.9999999999999 373 C 472.9999999999999 375.76142374915395 470.76142374915383 378 467.9999999999999 378 C 465.23857625084594 378 462.9999999999999 375.76142374915395 462.9999999999999 373 C 462.9999999999999 370.23857625084605 465.23857625084594 368 467.9999999999999 368 C 470.76142374915383 368 472.9999999999999 370.23857625084605 472.9999999999999 373 Z" stroke-opacity="1" stroke-linecap="round" stroke-linejoin="round" stroke-miterlimit="10"/><text fill="rgb(77,77,255)" stroke="none" font-family="geogebra-sans-serif, sans-serif" font-size="16px" font-style="normal" font-weight="normal" text-decoration="normal" x="472" y="363" text-anchor="start" dominant-baseline="alphabetic" fill-opacity="1">A</text><text fill="none" stroke="rgb(255,255,255)" font-family="geogebra-sans-serif, sans-serif" font-size="16px" font-style="normal" font-weight="normal" text-decoration="normal" x="472" y="363" text-anchor="start" dominant-baseline="alphabetic" stroke-opacity="1" stroke-linejoin="bevel" stroke-miterlimit="10" stroke-width="3">A</text><text fill="rgb(77,77,255)" stroke="none" font-family="geogebra-sans-serif, sans-serif" font-size="16px" font-style="normal" font-weight="normal" text-decoration="normal" x="472" y="363" text-anchor="start" dominant-baseline="alphabetic" fill-opacity="1">A</text><path fill="rgb(77,77,255)" stroke="none" paint-order="stroke fill markers" d=" M 757.9999999999999 370 C 757.9999999999999 372.76142374915395 755.7614237491539 375 752.9999999999999 375 C 750.2385762508459 375 747.9999999999999 372.76142374915395 747.9999999999999 370 C 747.9999999999999 367.23857625084605 750.2385762508459 365 752.9999999999999 365 C 755.7614237491539 365 757.9999999999999 367.23857625084605 757.9999999999999 370 Z" fill-opacity="1"/><path fill="none" stroke="rgb(0,0,0)" paint-order="fill stroke markers" d=" M 757.9999999999999 370 C 757.9999999999999 372.76142374915395 755.7614237491539 375 752.9999999999999 375 C 750.2385762508459 375 747.9999999999999 372.76142374915395 747.9999999999999 370 C 747.9999999999999 367.23857625084605 750.2385762508459 365 752.9999999999999 365 C 755.7614237491539 365 757.9999999999999 367.23857625084605 757.9999999999999 370 Z" stroke-opacity="1" stroke-linecap="round" stroke-linejoin="round" stroke-miterlimit="10"/><text fill="rgb(77,77,255)" stroke="none" font-family="geogebra-sans-serif, sans-serif" font-size="16px" font-style="normal" font-weight="normal" text-decoration="normal" x="757" y="360" text-anchor="start" dominant-baseline="alphabetic" fill-opacity="1">B</text><text fill="none" stroke="rgb(255,255,255)" font-family="geogebra-sans-serif, sans-serif" font-size="16px" font-style="normal" font-weight="normal" text-decoration="normal" x="757" y="360" text-anchor="start" dominant-baseline="alphabetic" stroke-opacity="1" stroke-linejoin="bevel" stroke-miterlimit="10" stroke-width="3">B</text><text fill="rgb(77,77,255)" stroke="none" font-family="geogebra-sans-serif, sans-serif" font-size="16px" font-style="normal" font-weight="normal" text-decoration="normal" x="757" y="360" text-anchor="start" dominant-baseline="alphabetic" fill-opacity="1">B</text><path fill="rgb(77,77,255)" stroke="none" paint-order="stroke fill markers" d=" M 527.9999999999999 188 C 527.9999999999999 190.76142374915398 525.7614237491539 193 522.9999999999999 193 C 520.2385762508459 193 517.9999999999999 190.76142374915398 517.9999999999999 188 C 517.9999999999999 185.23857625084602 520.2385762508459 183 522.9999999999999 183 C 525.7614237491539 183 527.9999999999999 185.23857625084602 527.9999999999999 188 Z" fill-opacity="1"/><path fill="none" stroke="rgb(0,0,0)" paint-order="fill stroke markers" d=" M 527.9999999999999 188 C 527.9999999999999 190.76142374915398 525.7614237491539 193 522.9999999999999 193 C 520.2385762508459 193 517.9999999999999 190.76142374915398 517.9999999999999 188 C 517.9999999999999 185.23857625084602 520.2385762508459 183 522.9999999999999 183 C 525.7614237491539 183 527.9999999999999 185.23857625084602 527.9999999999999 188 Z" stroke-opacity="1" stroke-linecap="round" stroke-linejoin="round" stroke-miterlimit="10"/><path fill="rgb(77,77,255)" stroke="none" paint-order="stroke fill markers" d=" M 660.9999999999999 170 C 660.9999999999999 172.76142374915398 658.7614237491539 175 655.9999999999999 175 C 653.2385762508459 175 650.9999999999999 172.76142374915398 650.9999999999999 170 C 650.9999999999999 167.23857625084602 653.2385762508459 165 655.9999999999999 165 C 658.7614237491539 165 660.9999999999999 167.23857625084602 660.9999999999999 170 Z" fill-opacity="1"/><path fill="none" stroke="rgb(0,0,0)" paint-order="fill stroke markers" d=" M 660.9999999999999 170 C 660.9999999999999 172.76142374915398 658.7614237491539 175 655.9999999999999 175 C 653.2385762508459 175 650.9999999999999 172.76142374915398 650.9999999999999 170 C 650.9999999999999 167.23857625084602 653.2385762508459 165 655.9999999999999 165 C 658.7614237491539 165 660.9999999999999 167.23857625084602 660.9999999999999 170 Z" stroke-opacity="1" stroke-linecap="round" stroke-linejoin="round" stroke-miterlimit="10"/><path fill="rgb(125,125,255)" stroke="none" paint-order="stroke fill markers" d=" M 380.614014233474 275.64585456208204 C 380.614014233474 278.407278311236 378.37543798262794 280.64585456208204 375.614014233474 280.64585456208204 C 372.85259048432005 280.64585456208204 370.614014233474 278.407278311236 370.614014233474 275.64585456208204 C 370.614014233474 272.8844308129281 372.85259048432005 270.64585456208204 375.614014233474 270.64585456208204 C 378.37543798262794 270.64585456208204 380.614014233474 272.8844308129281 380.614014233474 275.64585456208204 Z" fill-opacity="1"/><path fill="none" stroke="rgb(0,0,0)" paint-order="fill stroke markers" d=" M 380.614014233474 275.64585456208204 C 380.614014233474 278.407278311236 378.37543798262794 280.64585456208204 375.614014233474 280.64585456208204 C 372.85259048432005 280.64585456208204 370.614014233474 278.407278311236 370.614014233474 275.64585456208204 C 370.614014233474 272.8844308129281 372.85259048432005 270.64585456208204 375.614014233474 270.64585456208204 C 378.37543798262794 270.64585456208204 380.614014233474 272.8844308129281 380.614014233474 275.64585456208204 Z" stroke-opacity="1" stroke-linecap="round" stroke-linejoin="round" stroke-miterlimit="10"/><text fill="rgb(125,125,255)" stroke="none" font-family="geogebra-sans-serif, sans-serif" font-size="16px" font-style="normal" font-weight="normal" text-decoration="normal" x="380" y="266" text-anchor="start" dominant-baseline="alphabetic" fill-opacity="1">D</text><text fill="none" stroke="rgb(255,255,255)" font-family="geogebra-sans-serif, sans-serif" font-size="16px" font-style="normal" font-weight="normal" text-decoration="normal" x="380" y="266" text-anchor="start" dominant-baseline="alphabetic" stroke-opacity="1" stroke-linejoin="bevel" stroke-miterlimit="10" stroke-width="3">D</text><text fill="rgb(125,125,255)" stroke="none" font-family="geogebra-sans-serif, sans-serif" font-size="16px" font-style="normal" font-weight="normal" text-decoration="normal" x="380" y="266" text-anchor="start" dominant-baseline="alphabetic" fill-opacity="1">D</text><path fill="rgb(68,68,68)" stroke="none" paint-order="stroke fill markers" d=" M 606.2050830663684 371.5873149150909 C 606.2050830663684 373.79645391441403 604.4142220656915 375.5873149150909 602.2050830663684 375.5873149150909 C 599.9959440670452 375.5873149150909 598.2050830663684 373.79645391441403 598.2050830663684 371.5873149150909 C 598.2050830663684 369.3781759157677 599.9959440670452 367.5873149150909 602.2050830663684 367.5873149150909 C 604.4142220656915 367.5873149150909 606.2050830663684 369.3781759157677 606.2050830663684 371.5873149150909 Z" fill-opacity="1"/><path fill="none" stroke="rgb(0,0,0)" paint-order="fill stroke markers" d=" M 606.2050830663684 371.5873149150909 C 606.2050830663684 373.79645391441403 604.4142220656915 375.5873149150909 602.2050830663684 375.5873149150909 C 599.9959440670452 375.5873149150909 598.2050830663684 373.79645391441403 598.2050830663684 371.5873149150909 C 598.2050830663684 369.3781759157677 599.9959440670452 367.5873149150909 602.2050830663684 367.5873149150909 C 604.4142220656915 367.5873149150909 606.2050830663684 369.3781759157677 606.2050830663684 371.5873149150909 Z" stroke-opacity="1" stroke-linecap="round" stroke-linejoin="round" stroke-miterlimit="10"/><text fill="rgb(68,68,68)" stroke="none" font-family="geogebra-sans-serif, sans-serif" font-size="16px" font-style="normal" font-weight="normal" text-decoration="normal" x="606" y="364" text-anchor="start" dominant-baseline="alphabetic" fill-opacity="1">E</text><text fill="none" stroke="rgb(255,255,255)" font-family="geogebra-sans-serif, sans-serif" font-size="16px" font-style="normal" font-weight="normal" text-decoration="normal" x="606" y="364" text-anchor="start" dominant-baseline="alphabetic" stroke-opacity="1" stroke-linejoin="bevel" stroke-miterlimit="10" stroke-width="3">E</text><text fill="rgb(68,68,68)" stroke="none" font-family="geogebra-sans-serif, sans-serif" font-size="16px" font-style="normal" font-weight="normal" text-decoration="normal" x="606" y="364" text-anchor="start" dominant-baseline="alphabetic" fill-opacity="1">E</text><path fill="rgb(125,125,255)" stroke="none" paint-order="stroke fill markers" d=" M 543.0649352427085 487.47228856555216 C 543.0649352427085 490.2337123147061 540.8263589918625 492.47228856555216 538.0649352427085 492.47228856555216 C 535.3035114935545 492.47228856555216 533.0649352427085 490.2337123147061 533.0649352427085 487.47228856555216 C 533.0649352427085 484.7108648163982 535.3035114935545 482.47228856555216 538.0649352427085 482.47228856555216 C 540.8263589918625 482.47228856555216 543.0649352427085 484.7108648163982 543.0649352427085 487.47228856555216 Z" fill-opacity="1"/><path fill="none" stroke="rgb(0,0,0)" paint-order="fill stroke markers" d=" M 543.0649352427085 487.47228856555216 C 543.0649352427085 490.2337123147061 540.8263589918625 492.47228856555216 538.0649352427085 492.47228856555216 C 535.3035114935545 492.47228856555216 533.0649352427085 490.2337123147061 533.0649352427085 487.47228856555216 C 533.0649352427085 484.7108648163982 535.3035114935545 482.47228856555216 538.0649352427085 482.47228856555216 C 540.8263589918625 482.47228856555216 543.0649352427085 484.7108648163982 543.0649352427085 487.47228856555216 Z" stroke-opacity="1" stroke-linecap="round" stroke-linejoin="round" stroke-miterlimit="10"/><text fill="rgb(125,125,255)" stroke="none" font-family="geogebra-sans-serif, sans-serif" font-size="16px" font-style="normal" font-weight="normal" text-decoration="normal" x="542" y="477" text-anchor="start" dominant-baseline="alphabetic" fill-opacity="1">F</text><text fill="none" stroke="rgb(255,255,255)" font-family="geogebra-sans-serif, sans-serif" font-size="16px" font-style="normal" font-weight="normal" text-decoration="normal" x="542" y="477" text-anchor="start" dominant-baseline="alphabetic" stroke-opacity="1" stroke-linejoin="bevel" stroke-miterlimit="10" stroke-width="3">F</text><text fill="rgb(125,125,255)" stroke="none" font-family="geogebra-sans-serif, sans-serif" font-size="16px" font-style="normal" font-weight="normal" text-decoration="normal" x="542" y="477" text-anchor="start" dominant-baseline="alphabetic" fill-opacity="1">F</text></g></g></svg>