<svg version="1.1" xmlns="http://www.w3.org/2000/svg" xmlns:xlink="http://www.w3.org/1999/xlink" width="1148" height="700"><defs><clipPath id="VnFtgpIWNIXH"><path fill="none" stroke="none" d=" M 0 0 L 1148 0 L 1148 700 L 0 700 L 0 0 Z"/></clipPath></defs><g transform="scale(1,1)" clip-path="url(#VnFtgpIWNIXH)"><g><rect fill="rgb(255,255,255)" stroke="none" x="0" y="0" width="1148" height="700" fill-opacity="1"/><path fill="rgb(153,51,0)" stroke="none" paint-order="stroke fill markers" fill-rule="evenodd" d=" M 523.9999999999999 150 L 431.9999999999999 410 L 614.2161209587589 410.62434943641495 Z" fill-opacity="0.09803921568627451"/><path fill="none" stroke="rgb(153,51,0)" paint-order="fill stroke markers" d=" M 523.9999999999999 150 L 431.9999999999999 410" stroke-opacity="0.6980392156862745" stroke-linecap="round" stroke-linejoin="round" stroke-miterlimit="10" stroke-width="2.5"/><path fill="none" stroke="rgb(153,51,0)" paint-order="fill stroke markers" d=" M 431.9999999999999 410 L 614.2161209587589 410.62434943641495" stroke-opacity="0.6980392156862745" stroke-linecap="round" stroke-linejoin="round" stroke-miterlimit="10" stroke-width="2.5"/><path fill="none" stroke="rgb(153,51,0)" paint-order="fill stroke markers" d=" M 614.2161209587589 410.62434943641495 L 523.9999999999999 150" stroke-opacity="0.6980392156862745" stroke-linecap="round" stroke-linejoin="round" stroke-miterlimit="10" stroke-width="2.5"/><path fill="none" stroke="rgb(0,0,0)" paint-order="fill stroke markers" d=" M 431.9999999999999 410 L 359.0037862852334 616.2936474547748" stroke-opacity="0.6980392156862745" stroke-linecap="round" stroke-linejoin="round" stroke-miterlimit="10" stroke-width="2.5"/><path fill="none" stroke="rgb(0,0,0)" paint-order="fill stroke markers" d=" M 614.2161209587589 410.62434943641495 L 686.1070013210038 618.3091149273447" stroke-opacity="0.6980392156862745" stroke-linecap="round" stroke-linejoin="round" stroke-miterlimit="10" stroke-width="2.5"/><path fill="none" stroke="rgb(0,0,0)" paint-order="fill stroke markers" d=" M 431.9999999999999 410 L 650 514" stroke-opacity="0.6980392156862745" stroke-linecap="round" stroke-linejoin="round" stroke-miterlimit="10" stroke-width="2.5"/><path fill="none" stroke="rgb(0,0,0)" paint-order="fill stroke markers" d=" M 396.0292385359696 511.6564997896508 L 614.2161209587589 410.62434943641495" stroke-opacity="0.6980392156862745" stroke-linecap="round" stroke-linejoin="round" stroke-miterlimit="10" stroke-width="2.5"/><path fill="rgb(77,77,255)" stroke="none" paint-order="stroke fill markers" d=" M 528.9999999999999 150 C 528.9999999999999 152.76142374915398 526.7614237491539 155 523.9999999999999 155 C 521.2385762508459 155 518.9999999999999 152.76142374915398 518.9999999999999 150 C 518.9999999999999 147.23857625084602 521.2385762508459 145 523.9999999999999 145 C 526.7614237491539 145 528.9999999999999 147.23857625084602 528.9999999999999 150 Z" fill-opacity="1"/><path fill="none" stroke="rgb(0,0,0)" paint-order="fill stroke markers" d=" M 528.9999999999999 150 C 528.9999999999999 152.76142374915398 526.7614237491539 155 523.9999999999999 155 C 521.2385762508459 155 518.9999999999999 152.76142374915398 518.9999999999999 150 C 518.9999999999999 147.23857625084602 521.2385762508459 145 523.9999999999999 145 C 526.7614237491539 145 528.9999999999999 147.23857625084602 528.9999999999999 150 Z" stroke-opacity="1" stroke-linecap="round" stroke-linejoin="round" stroke-miterlimit="10"/><text fill="rgb(77,77,255)" stroke="none" font-family="geogebra-sans-serif, sans-serif" font-size="16px" font-style="normal" font-weight="normal" text-decoration="normal" x="528" y="140" text-anchor="start" dominant-baseline="alphabetic" fill-opacity="1">A</text><text fill="none" stroke="rgb(255,255,255)" font-family="geogebra-sans-serif, sans-serif" font-size="16px" font-style="normal" font-weight="normal" text-decoration="normal" x="528" y="140" text-anchor="start" dominant-baseline="alphabetic" stroke-opacity="1" stroke-linejoin="bevel" stroke-miterlimit="10" stroke-width="3">A</text><text fill="rgb(77,77,255)" stroke="none" font-family="geogebra-sans-serif, sans-serif" font-size="16px" font-style="normal" font-weight="normal" text-decoration="normal" x="528" y="140" text-anchor="start" dominant-baseline="alphabetic" fill-opacity="1">A</text><path fill="rgb(77,77,255)" stroke="none" paint-order="stroke fill markers" d=" M 436.9999999999999 410 C 436.9999999999999 412.76142374915395 434.76142374915383 415 431.9999999999999 415 C 429.23857625084594 415 426.9999999999999 412.76142374915395 426.9999999999999 410 C 426.9999999999999 407.23857625084605 429.23857625084594 405 431.9999999999999 405 C 434.76142374915383 405 436.9999999999999 407.23857625084605 436.9999999999999 410 Z" fill-opacity="1"/><path fill="none" stroke="rgb(0,0,0)" paint-order="fill stroke markers" d=" M 436.9999999999999 410 C 436.9999999999999 412.76142374915395 434.76142374915383 415 431.9999999999999 415 C 429.23857625084594 415 426.9999999999999 412.76142374915395 426.9999999999999 410 C 426.9999999999999 407.23857625084605 429.23857625084594 405 431.9999999999999 405 C 434.76142374915383 405 436.9999999999999 407.23857625084605 436.9999999999999 410 Z" stroke-opacity="1" stroke-linecap="round" stroke-linejoin="round" stroke-miterlimit="10"/><text fill="rgb(77,77,255)" stroke="none" font-family="geogebra-sans-serif, sans-serif" font-size="16px" font-style="normal" font-weight="normal" text-decoration="normal" x="436" y="400" text-anchor="start" dominant-baseline="alphabetic" fill-opacity="1">B</text><text fill="none" stroke="rgb(255,255,255)" font-family="geogebra-sans-serif, sans-serif" font-size="16px" font-style="normal" font-weight="normal" text-decoration="normal" x="436" y="400" text-anchor="start" dominant-baseline="alphabetic" stroke-opacity="1" stroke-linejoin="bevel" stroke-miterlimit="10" stroke-width="3">B</text><text fill="rgb(77,77,255)" stroke="none" font-family="geogebra-sans-serif, sans-serif" font-size="16px" font-style="normal" font-weight="normal" text-decoration="normal" x="436" y="400" text-anchor="start" dominant-baseline="alphabetic" fill-opacity="1">B</text><path fill="rgb(68,68,68)" stroke="none" paint-order="stroke fill markers" d=" M 618.2161209587589 410.62434943641495 C 618.2161209587589 412.8334884357381 616.425259958082 414.62434943641495 614.2161209587589 414.62434943641495 C 612.0069819594357 414.62434943641495 610.2161209587589 412.8334884357381 610.2161209587589 410.62434943641495 C 610.2161209587589 408.4152104370918 612.0069819594357 406.62434943641495 614.2161209587589 406.62434943641495 C 616.425259958082 406.62434943641495 618.2161209587589 408.4152104370918 618.2161209587589 410.62434943641495 Z" fill-opacity="1"/><path fill="none" stroke="rgb(0,0,0)" paint-order="fill stroke markers" d=" M 618.2161209587589 410.62434943641495 C 618.2161209587589 412.8334884357381 616.425259958082 414.62434943641495 614.2161209587589 414.62434943641495 C 612.0069819594357 414.62434943641495 610.2161209587589 412.8334884357381 610.2161209587589 410.62434943641495 C 610.2161209587589 408.4152104370918 612.0069819594357 406.62434943641495 614.2161209587589 406.62434943641495 C 616.425259958082 406.62434943641495 618.2161209587589 408.4152104370918 618.2161209587589 410.62434943641495 Z" stroke-opacity="1" stroke-linecap="round" stroke-linejoin="round" stroke-miterlimit="10"/><text fill="rgb(68,68,68)" stroke="none" font-family="geogebra-sans-serif, sans-serif" font-size="16px" font-style="normal" font-weight="normal" text-decoration="normal" x="618" y="403" text-anchor="start" dominant-baseline="alphabetic" fill-opacity="1">C</text><text fill="none" stroke="rgb(255,255,255)" font-family="geogebra-sans-serif, sans-serif" font-size="16px" font-style="normal" font-weight="normal" text-decoration="normal" x="618" y="403" text-anchor="start" dominant-baseline="alphabetic" stroke-opacity="1" stroke-linejoin="bevel" stroke-miterlimit="10" stroke-width="3">C</text><text fill="rgb(68,68,68)" stroke="none" font-family="geogebra-sans-serif, sans-serif" font-size="16px" font-style="normal" font-weight="normal" text-decoration="normal" x="618" y="403" text-anchor="start" dominant-baseline="alphabetic" fill-opacity="1">C</text><path fill="rgb(125,125,255)" stroke="none" paint-order="stroke fill markers" d=" M 364.0037862852334 616.2936474547748 C 364.0037862852334 619.0550712039288 361.76521003438734 621.2936474547748 359.0037862852334 621.2936474547748 C 356.24236253607944 621.2936474547748 354.0037862852334 619.0550712039288 354.0037862852334 616.2936474547748 C 354.0037862852334 613.5322237056208 356.24236253607944 611.2936474547748 359.0037862852334 611.2936474547748 C 361.76521003438734 611.2936474547748 364.0037862852334 613.5322237056208 364.0037862852334 616.2936474547748 Z" fill-opacity="1"/><path fill="none" stroke="rgb(0,0,0)" paint-order="fill stroke markers" d=" M 364.0037862852334 616.2936474547748 C 364.0037862852334 619.0550712039288 361.76521003438734 621.2936474547748 359.0037862852334 621.2936474547748 C 356.24236253607944 621.2936474547748 354.0037862852334 619.0550712039288 354.0037862852334 616.2936474547748 C 354.0037862852334 613.5322237056208 356.24236253607944 611.2936474547748 359.0037862852334 611.2936474547748 C 361.76521003438734 611.2936474547748 364.0037862852334 613.5322237056208 364.0037862852334 616.2936474547748 Z" stroke-opacity="1" stroke-linecap="round" stroke-linejoin="round" stroke-miterlimit="10"/><text fill="rgb(125,125,255)" stroke="none" font-family="geogebra-sans-serif, sans-serif" font-size="16px" font-style="normal" font-weight="normal" text-decoration="normal" x="363" y="606" text-anchor="start" dominant-baseline="alphabetic" fill-opacity="1">D</text><text fill="none" stroke="rgb(255,255,255)" font-family="geogebra-sans-serif, sans-serif" font-size="16px" font-style="normal" font-weight="normal" text-decoration="normal" x="363" y="606" text-anchor="start" dominant-baseline="alphabetic" stroke-opacity="1" stroke-linejoin="bevel" stroke-miterlimit="10" stroke-width="3">D</text><text fill="rgb(125,125,255)" stroke="none" font-family="geogebra-sans-serif, sans-serif" font-size="16px" font-style="normal" font-weight="normal" text-decoration="normal" x="363" y="606" text-anchor="start" dominant-baseline="alphabetic" fill-opacity="1">D</text><path fill="rgb(125,125,255)" stroke="none" paint-order="stroke fill markers" d=" M 691.1070013210038 618.3091149273447 C 691.1070013210038 621.0705386764987 688.8684250701579 623.3091149273447 686.1070013210038 623.3091149273447 C 683.3455775718498 623.3091149273447 681.1070013210038 621.0705386764987 681.1070013210038 618.3091149273447 C 681.1070013210038 615.5476911781907 683.3455775718498 613.3091149273447 686.1070013210038 613.3091149273447 C 688.8684250701579 613.3091149273447 691.1070013210038 615.5476911781907 691.1070013210038 618.3091149273447 Z" fill-opacity="1"/><path fill="none" stroke="rgb(0,0,0)" paint-order="fill stroke markers" d=" M 691.1070013210038 618.3091149273447 C 691.1070013210038 621.0705386764987 688.8684250701579 623.3091149273447 686.1070013210038 623.3091149273447 C 683.3455775718498 623.3091149273447 681.1070013210038 621.0705386764987 681.1070013210038 618.3091149273447 C 681.1070013210038 615.5476911781907 683.3455775718498 613.3091149273447 686.1070013210038 613.3091149273447 C 688.8684250701579 613.3091149273447 691.1070013210038 615.5476911781907 691.1070013210038 618.3091149273447 Z" stroke-opacity="1" stroke-linecap="round" stroke-linejoin="round" stroke-miterlimit="10"/><text fill="rgb(125,125,255)" stroke="none" font-family="geogebra-sans-serif, sans-serif" font-size="16px" font-style="normal" font-weight="normal" text-decoration="normal" x="690" y="608" text-anchor="start" dominant-baseline="alphabetic" fill-opacity="1">E</text><text fill="none" stroke="rgb(255,255,255)" font-family="geogebra-sans-serif, sans-serif" font-size="16px" font-style="normal" font-weight="normal" text-decoration="normal" x="690" y="608" text-anchor="start" dominant-baseline="alphabetic" stroke-opacity="1" stroke-linejoin="bevel" stroke-miterlimit="10" stroke-width="3">E</text><text fill="rgb(125,125,255)" stroke="none" font-family="geogebra-sans-serif, sans-serif" font-size="16px" font-style="normal" font-weight="normal" text-decoration="normal" x="690" y="608" text-anchor="start" dominant-baseline="alphabetic" fill-opacity="1">E</text><path fill="rgb(125,125,255)" stroke="none" paint-order="stroke fill markers" d=" M 401.0292385359696 511.6564997896508 C 401.0292385359696 514.4179235388048 398.7906622851236 516.6564997896508 396.0292385359696 516.6564997896508 C 393.2678147868157 516.6564997896508 391.0292385359696 514.4179235388048 391.0292385359696 511.6564997896508 C 391.0292385359696 508.89507604049686 393.2678147868157 506.6564997896508 396.0292385359696 506.6564997896508 C 398.7906622851236 506.6564997896508 401.0292385359696 508.89507604049686 401.0292385359696 511.6564997896508 Z" fill-opacity="1"/><path fill="none" stroke="rgb(0,0,0)" paint-order="fill stroke markers" d=" M 401.0292385359696 511.6564997896508 C 401.0292385359696 514.4179235388048 398.7906622851236 516.6564997896508 396.0292385359696 516.6564997896508 C 393.2678147868157 516.6564997896508 391.0292385359696 514.4179235388048 391.0292385359696 511.6564997896508 C 391.0292385359696 508.89507604049686 393.2678147868157 506.6564997896508 396.0292385359696 506.6564997896508 C 398.7906622851236 506.6564997896508 401.0292385359696 508.89507604049686 401.0292385359696 511.6564997896508 Z" stroke-opacity="1" stroke-linecap="round" stroke-linejoin="round" stroke-miterlimit="10"/><text fill="rgb(125,125,255)" stroke="none" font-family="geogebra-sans-serif, sans-serif" font-size="16px" font-style="normal" font-weight="normal" text-decoration="normal" x="400" y="502" text-anchor="start" dominant-baseline="alphabetic" fill-opacity="1">F</text><text fill="none" stroke="rgb(255,255,255)" font-family="geogebra-sans-serif, sans-serif" font-size="16px" font-style="normal" font-weight="normal" text-decoration="normal" x="400" y="502" text-anchor="start" dominant-baseline="alphabetic" stroke-opacity="1" stroke-linejoin="bevel" stroke-miterlimit="10" stroke-width="3">F</text><text fill="rgb(125,125,255)" stroke="none" font-family="geogebra-sans-serif, sans-serif" font-size="16px" font-style="normal" font-weight="normal" text-decoration="normal" x="400" y="502" text-anchor="start" dominant-baseline="alphabetic" fill-opacity="1">F</text><path fill="rgb(125,125,255)" stroke="none" paint-order="stroke fill markers" d=" M 655 514 C 655 516.761423749154 652.761423749154 519 650 519 C 647.238576250846 519 645 516.761423749154 645 514 C 645 511.23857625084605 647.238576250846 509 650 509 C 652.761423749154 509 655 511.23857625084605 655 514 Z" fill-opacity="1"/><path fill="none" stroke="rgb(0,0,0)" paint-order="fill stroke markers" d=" M 655 514 C 655 516.761423749154 652.761423749154 519 650 519 C 647.238576250846 519 645 516.761423749154 645 514 C 645 511.23857625084605 647.238576250846 509 650 509 C 652.761423749154 509 655 511.23857625084605 655 514 Z" stroke-opacity="1" stroke-linecap="round" stroke-linejoin="round" stroke-miterlimit="10"/><text fill="rgb(125,125,255)" stroke="none" font-family="geogebra-sans-serif, sans-serif" font-size="16px" font-style="normal" font-weight="normal" text-decoration="normal" x="654" y="504" text-anchor="start" dominant-baseline="alphabetic" fill-opacity="1">G</text><text fill="none" stroke="rgb(255,255,255)" font-family="geogebra-sans-serif, sans-serif" font-size="16px" font-style="normal" font-weight="normal" text-decoration="normal" x="654" y="504" text-anchor="start" dominant-baseline="alphabetic" stroke-opacity="1" stroke-linejoin="bevel" stroke-miterlimit="10" stroke-width="3">G</text><text fill="rgb(125,125,255)" stroke="none" font-family="geogebra-sans-serif, sans-serif" font-size="16px" font-style="normal" font-weight="normal" text-decoration="normal" x="654" y="504" text-anchor="start" dominant-baseline="alphabetic" fill-opacity="1">G</text></g></g></svg>