<?xml version="1.0" encoding="UTF-8" standalone="no"?>
<svg
   version="1.1"
   width="673.651"
   height="594.3288"
   id="svg85"
   sodipodi:docname="prop16.svg"
   inkscape:version="1.1.2 (b8e25be833, 2022-02-05)"
   xmlns:inkscape="http://www.inkscape.org/namespaces/inkscape"
   xmlns:sodipodi="http://sodipodi.sourceforge.net/DTD/sodipodi-0.dtd"
   xmlns="http://www.w3.org/2000/svg"
   xmlns:svg="http://www.w3.org/2000/svg">
  <sodipodi:namedview
     id="namedview87"
     pagecolor="#ffffff"
     bordercolor="#666666"
     borderopacity="1.0"
     inkscape:pageshadow="2"
     inkscape:pageopacity="0.0"
     inkscape:pagecheckerboard="0"
     showgrid="false"
     inkscape:zoom="1.258567"
     inkscape:cx="415.1547"
     inkscape:cy="291.99876"
     inkscape:window-width="1920"
     inkscape:window-height="1001"
     inkscape:window-x="-9"
     inkscape:window-y="-9"
     inkscape:window-maximized="1"
     inkscape:current-layer="g81" />
  <defs
     id="defs5">
    <clipPath
       id="fCLJPWQqgbSd">
      <path
         fill="none"
         stroke="none"
         d="M 0,0 H 1148 V 642 H 0 Z"
         id="path2" />
    </clipPath>
  </defs>
  <g
     clip-path="url(#fCLJPWQqgbSd)"
     id="g83"
     transform="translate(-158.91089,-29.3965)">
    <g
       id="g81">
      <rect
         fill="#ffffff"
         stroke="none"
         x="158.91089"
         y="29.3965"
         width="673.651"
         height="594.3288"
         fill-opacity="1"
         id="rect7"
         style="stroke-width:0.999999" />
      <path
         fill="#993300"
         stroke="none"
         paint-order="stroke fill markers"
         fill-rule="evenodd"
         d="m 406.0458,72.2475 -194.7253,308.9251 317.7097,1.4641 z"
         fill-opacity="0.0980392"
         id="path9" />
      <path
         fill="none"
         stroke="#993300"
         paint-order="fill stroke markers"
         d="M 406.0458,72.2475 211.3205,381.1726"
         stroke-opacity="0.698039"
         stroke-linecap="round"
         stroke-linejoin="round"
         stroke-miterlimit="10"
         stroke-width="2.5"
         id="path11" />
      <path
         fill="none"
         stroke="#993300"
         paint-order="fill stroke markers"
         d="m 211.3205,381.1726 317.7097,1.4641"
         stroke-opacity="0.698039"
         stroke-linecap="round"
         stroke-linejoin="round"
         stroke-miterlimit="10"
         stroke-width="2.5"
         id="path13" />
      <path
         fill="none"
         stroke="#993300"
         paint-order="fill stroke markers"
         d="M 529.0302,382.6367 406.0458,72.2475"
         stroke-opacity="0.698039"
         stroke-linecap="round"
         stroke-linejoin="round"
         stroke-miterlimit="10"
         stroke-width="2.5"
         id="path15" />
      <path
         fill="none"
         stroke="#000000"
         paint-order="fill stroke markers"
         d="m 529.0302,382.6367 266.4403,1.22784"
         stroke-opacity="0.698039"
         stroke-linecap="round"
         stroke-linejoin="round"
         stroke-miterlimit="10"
         stroke-width="2.5"
         id="path17" />
      <path
         fill="none"
         stroke="#000000"
         paint-order="fill stroke markers"
         d="M 211.3205,381.1726 723.7555,73.7116"
         stroke-opacity="0.698039"
         stroke-linecap="round"
         stroke-linejoin="round"
         stroke-miterlimit="10"
         stroke-width="2.5"
         id="path19" />
      <path
         fill="none"
         stroke="#000000"
         paint-order="fill stroke markers"
         d="m 529.0302,382.6367 84.21593,212.54497"
         stroke-opacity="0.698039"
         stroke-linecap="round"
         stroke-linejoin="round"
         stroke-miterlimit="10"
         stroke-width="2.5"
         id="path21" />
      <path
         fill="none"
         stroke="#000000"
         paint-order="fill stroke markers"
         d="M 529.0302,382.6367 723.7555,73.7116"
         stroke-opacity="0.698039"
         stroke-linecap="round"
         stroke-linejoin="round"
         stroke-miterlimit="10"
         stroke-width="2.5"
         id="path23" />
      <path
         fill="#4d4dff"
         stroke="none"
         paint-order="stroke fill markers"
         d="m 411.0458,72.2475 c 0,2.761424 -2.23858,5 -5,5 -2.76142,0 -5,-2.238576 -5,-5 0,-2.761424 2.23858,-5 5,-5 2.76142,0 5,2.238576 5,5 z"
         fill-opacity="1"
         id="path25" />
      <path
         fill="none"
         stroke="#000000"
         paint-order="fill stroke markers"
         d="m 411.0458,72.2475 c 0,2.761424 -2.23858,5 -5,5 -2.76142,0 -5,-2.238576 -5,-5 0,-2.761424 2.23858,-5 5,-5 2.76142,0 5,2.238576 5,5 z"
         stroke-opacity="1"
         stroke-linecap="round"
         stroke-linejoin="round"
         stroke-miterlimit="10"
         id="path27" />
      <text
         fill="#4d4dff"
         stroke="none"
         font-family="geogebra-sans-serif, sans-serif"
         font-size="16px"
         font-style="normal"
         font-weight="normal"
         text-decoration="normal"
         x="410"
         y="62"
         text-anchor="start"
         dominant-baseline="alphabetic"
         fill-opacity="1"
         id="text29">A</text>
      <text
         fill="#4d4dff"
         stroke="none"
         font-family="geogebra-sans-serif, sans-serif"
         font-size="16px"
         font-style="normal"
         font-weight="normal"
         text-decoration="normal"
         x="410"
         y="62"
         text-anchor="start"
         dominant-baseline="alphabetic"
         fill-opacity="1"
         id="text31">A</text>
      <path
         fill="#4d4dff"
         stroke="none"
         paint-order="stroke fill markers"
         d="m 216.3205,381.1726 c 0,2.76142 -2.23858,5 -5,5 -2.76142,0 -5,-2.23858 -5,-5 0,-2.76142 2.23858,-5 5,-5 2.76142,0 5,2.23858 5,5 z"
         fill-opacity="1"
         id="path33" />
      <path
         fill="none"
         stroke="#000000"
         paint-order="fill stroke markers"
         d="m 216.3205,381.1726 c 0,2.76142 -2.23858,5 -5,5 -2.76142,0 -5,-2.23858 -5,-5 0,-2.76142 2.23858,-5 5,-5 2.76142,0 5,2.23858 5,5 z"
         stroke-opacity="1"
         stroke-linecap="round"
         stroke-linejoin="round"
         stroke-miterlimit="10"
         id="path35" />
      <text
         fill="#4d4dff"
         stroke="none"
         font-family="geogebra-sans-serif, sans-serif"
         font-size="16px"
         font-style="normal"
         font-weight="normal"
         text-decoration="normal"
         x="184"
         y="371"
         text-anchor="start"
         dominant-baseline="alphabetic"
         fill-opacity="1"
         id="text37">B</text>
      <text
         fill="#4d4dff"
         stroke="none"
         font-family="geogebra-sans-serif, sans-serif"
         font-size="16px"
         font-style="normal"
         font-weight="normal"
         text-decoration="normal"
         x="184"
         y="371"
         text-anchor="start"
         dominant-baseline="alphabetic"
         fill-opacity="1"
         id="text39">B</text>
      <path
         fill="#4d4dff"
         stroke="none"
         paint-order="stroke fill markers"
         d="m 534.0302,382.6367 c 0,2.76142 -2.23858,5 -5,5 -2.76142,0 -5,-2.23858 -5,-5 0,-2.76142 2.23858,-5 5,-5 2.76142,0 5,2.23858 5,5 z"
         fill-opacity="1"
         id="path41" />
      <path
         fill="none"
         stroke="#000000"
         paint-order="fill stroke markers"
         d="m 534.0302,382.6367 c 0,2.76142 -2.23858,5 -5,5 -2.76142,0 -5,-2.23858 -5,-5 0,-2.76142 2.23858,-5 5,-5 2.76142,0 5,2.23858 5,5 z"
         stroke-opacity="1"
         stroke-linecap="round"
         stroke-linejoin="round"
         stroke-miterlimit="10"
         id="path43" />
      <text
         fill="#4d4dff"
         stroke="none"
         font-family="geogebra-sans-serif, sans-serif"
         font-size="16px"
         font-style="normal"
         font-weight="normal"
         text-decoration="normal"
         x="513"
         y="405"
         text-anchor="start"
         dominant-baseline="alphabetic"
         fill-opacity="1"
         id="text45">C</text>
      <text
         fill="#4d4dff"
         stroke="none"
         font-family="geogebra-sans-serif, sans-serif"
         font-size="16px"
         font-style="normal"
         font-weight="normal"
         text-decoration="normal"
         x="513"
         y="405"
         text-anchor="start"
         dominant-baseline="alphabetic"
         fill-opacity="1"
         id="text47">C</text>
      <path
         fill="#7d7dff"
         stroke="none"
         paint-order="stroke fill markers"
         d="m 800.4705,383.86454 c 0,2.76142 -2.23858,5 -5,5 -2.76142,0 -5,-2.23858 -5,-5 0,-2.76143 2.23858,-5 5,-5 2.76142,0 5,2.23857 5,5 z"
         fill-opacity="1"
         id="path49" />
      <path
         fill="none"
         stroke="#000000"
         paint-order="fill stroke markers"
         d="m 800.4705,383.86454 c 0,2.76142 -2.23858,5 -5,5 -2.76142,0 -5,-2.23858 -5,-5 0,-2.76143 2.23858,-5 5,-5 2.76142,0 5,2.23857 5,5 z"
         stroke-opacity="1"
         stroke-linecap="round"
         stroke-linejoin="round"
         stroke-miterlimit="10"
         id="path51" />
      <text
         fill="#7d7dff"
         stroke="none"
         font-family="geogebra-sans-serif, sans-serif"
         font-size="16px"
         font-style="normal"
         font-weight="normal"
         text-decoration="normal"
         x="799"
         y="374"
         text-anchor="start"
         dominant-baseline="alphabetic"
         fill-opacity="1"
         id="text53">D</text>
      <text
         fill="#7d7dff"
         stroke="none"
         font-family="geogebra-sans-serif, sans-serif"
         font-size="16px"
         font-style="normal"
         font-weight="normal"
         text-decoration="normal"
         x="799"
         y="374"
         text-anchor="start"
         dominant-baseline="alphabetic"
         fill-opacity="1"
         id="text55">D</text>
      <path
         fill="#444444"
         stroke="none"
         paint-order="stroke fill markers"
         d="m 471.538,227.4421 c 0,2.20914 -1.79086,4 -4,4 -2.20914,0 -4,-1.79086 -4,-4 0,-2.20914 1.79086,-4 4,-4 2.20914,0 4,1.79086 4,4 z"
         fill-opacity="1"
         id="path57" />
      <path
         fill="none"
         stroke="#000000"
         paint-order="fill stroke markers"
         d="m 471.538,227.4421 c 0,2.20914 -1.79086,4 -4,4 -2.20914,0 -4,-1.79086 -4,-4 0,-2.20914 1.79086,-4 4,-4 2.20914,0 4,1.79086 4,4 z"
         stroke-opacity="1"
         stroke-linecap="round"
         stroke-linejoin="round"
         stroke-miterlimit="10"
         id="path59" />
      <text
         fill="#444444"
         stroke="none"
         font-family="geogebra-sans-serif, sans-serif"
         font-size="16px"
         font-style="normal"
         font-weight="normal"
         text-decoration="normal"
         x="440"
         y="226"
         text-anchor="start"
         dominant-baseline="alphabetic"
         fill-opacity="1"
         id="text61">E</text>
      <text
         fill="#444444"
         stroke="none"
         font-family="geogebra-sans-serif, sans-serif"
         font-size="16px"
         font-style="normal"
         font-weight="normal"
         text-decoration="normal"
         x="440"
         y="226"
         text-anchor="start"
         dominant-baseline="alphabetic"
         fill-opacity="1"
         id="text63">E</text>
      <path
         fill="#444444"
         stroke="none"
         paint-order="stroke fill markers"
         d="m 727.7555,73.7116 c 0,2.209139 -1.79086,4 -4,4 -2.20914,0 -4,-1.790861 -4,-4 0,-2.209139 1.79086,-4 4,-4 2.20914,0 4,1.790861 4,4 z"
         fill-opacity="1"
         id="path65" />
      <path
         fill="none"
         stroke="#000000"
         paint-order="fill stroke markers"
         d="m 727.7555,73.7116 c 0,2.209139 -1.79086,4 -4,4 -2.20914,0 -4,-1.790861 -4,-4 0,-2.209139 1.79086,-4 4,-4 2.20914,0 4,1.790861 4,4 z"
         stroke-opacity="1"
         stroke-linecap="round"
         stroke-linejoin="round"
         stroke-miterlimit="10"
         id="path67" />
      <text
         fill="#444444"
         stroke="none"
         font-family="geogebra-sans-serif, sans-serif"
         font-size="16px"
         font-style="normal"
         font-weight="normal"
         text-decoration="normal"
         x="728"
         y="66"
         text-anchor="start"
         dominant-baseline="alphabetic"
         fill-opacity="1"
         id="text69">F</text>
      <text
         fill="#444444"
         stroke="none"
         font-family="geogebra-sans-serif, sans-serif"
         font-size="16px"
         font-style="normal"
         font-weight="normal"
         text-decoration="normal"
         x="728"
         y="66"
         text-anchor="start"
         dominant-baseline="alphabetic"
         fill-opacity="1"
         id="text71">F</text>
      <path
         fill="#7d7dff"
         stroke="none"
         paint-order="stroke fill markers"
         d="m 618.24613,595.18167 c 0,2.76143 -2.23857,5 -5,5 -2.76142,0 -5,-2.23857 -5,-5 0,-2.76142 2.23858,-5 5,-5 2.76143,0 5,2.23858 5,5 z"
         fill-opacity="1"
         id="path73" />
      <path
         fill="none"
         stroke="#000000"
         paint-order="fill stroke markers"
         d="m 618.24613,595.18167 c 0,2.76143 -2.23857,5 -5,5 -2.76142,0 -5,-2.23857 -5,-5 0,-2.76142 2.23858,-5 5,-5 2.76143,0 5,2.23858 5,5 z"
         stroke-opacity="1"
         stroke-linecap="round"
         stroke-linejoin="round"
         stroke-miterlimit="10"
         id="path75" />
      <text
         fill="#7d7dff"
         stroke="none"
         font-family="geogebra-sans-serif, sans-serif"
         font-size="16px"
         font-style="normal"
         font-weight="normal"
         text-decoration="normal"
         x="617"
         y="585"
         text-anchor="start"
         dominant-baseline="alphabetic"
         fill-opacity="1"
         id="text77">G</text>
      <text
         fill="#7d7dff"
         stroke="none"
         font-family="geogebra-sans-serif, sans-serif"
         font-size="16px"
         font-style="normal"
         font-weight="normal"
         text-decoration="normal"
         x="617"
         y="585"
         text-anchor="start"
         dominant-baseline="alphabetic"
         fill-opacity="1"
         id="text79">G</text>
    </g>
  </g>
</svg>
