<svg version="1.1" xmlns="http://www.w3.org/2000/svg" xmlns:xlink="http://www.w3.org/1999/xlink" width="1148" height="700"><defs><clipPath id="uKuSaSrecusl"><path fill="none" stroke="none" d=" M 0 0 L 1148 0 L 1148 700 L 0 700 L 0 0 Z"/></clipPath></defs><g transform="scale(1,1)" clip-path="url(#uKuSaSrecusl)"><g><rect fill="rgb(255,255,255)" stroke="none" x="0" y="0" width="1148" height="700" fill-opacity="1"/><path fill="rgb(153,51,0)" stroke="none" paint-order="stroke fill markers" fill-rule="evenodd" d=" M 548.5848324166848 403.0494230829405 L 626.43240677201 345.0609238182595 L 537.2891061037984 306.63719643589036 Z" fill-opacity="0.09803921568627451"/><path fill="none" stroke="rgb(153,51,0)" paint-order="fill stroke markers" d=" M 548.5848324166848 403.0494230829405 L 626.43240677201 345.0609238182595 L 537.2891061037984 306.63719643589036 Z" stroke-opacity="0.6980392156862745" stroke-linecap="round" stroke-linejoin="round" stroke-miterlimit="10" stroke-width="2.5"/><path fill="none" stroke="rgb(0,0,0)" paint-order="fill stroke markers" d=" M 807.1722483487721 345.0609238182595 C 807.1722483487721 444.8807820079386 726.2522649616892 525.8007653950212 626.43240677201 525.8007653950212 C 526.6125485823308 525.8007653950212 445.692565195248 444.8807820079386 445.692565195248 345.0609238182595 C 445.692565195248 245.24106562858037 526.6125485823308 164.3210822414977 626.43240677201 164.3210822414977 C 726.2522649616892 164.3210822414977 807.1722483487721 245.24106562858037 807.1722483487721 345.0609238182595 Z" stroke-opacity="0.6980392156862745" stroke-linecap="round" stroke-linejoin="round" stroke-miterlimit="10" stroke-width="2.5"/><path fill="none" stroke="rgb(0,0,0)" paint-order="fill stroke markers" d=" M 815.1006267634825 306.63719643589036 C 815.1006267634825 460.06826262353604 690.7201722914443 584.4487170955741 537.2891061037984 584.4487170955741 C 383.8580399161525 584.4487170955741 259.47758544411425 460.06826262353604 259.47758544411425 306.63719643589036 C 259.47758544411425 153.20613024824462 383.8580399161525 28.825675776206594 537.2891061037984 28.825675776206594 C 690.7201722914443 28.825675776206594 815.1006267634825 153.20613024824462 815.1006267634825 306.63719643589036 Z" stroke-opacity="0.6980392156862745" stroke-linecap="round" stroke-linejoin="round" stroke-miterlimit="10" stroke-width="2.5"/><path fill="none" stroke="rgb(0,0,0)" paint-order="fill stroke markers" d=" M 548.5848324166848 403.0494230829405 L 626.43240677201 345.0609238182595" stroke-opacity="0.6980392156862745" stroke-linecap="round" stroke-linejoin="round" stroke-miterlimit="10" stroke-width="2.5"/><path fill="none" stroke="rgb(0,0,0)" paint-order="fill stroke markers" d=" M 626.43240677201 345.0609238182595 L 689.9814470620715 175.8616040459711" stroke-opacity="0.6980392156862745" stroke-linecap="round" stroke-linejoin="round" stroke-miterlimit="10" stroke-width="2.5"/><path fill="none" stroke="rgb(153,51,0)" paint-order="fill stroke markers" d=" M 548.5848324166848 403.0494230829405 L 626.43240677201 345.0609238182595" stroke-opacity="0.6980392156862745" stroke-linecap="round" stroke-linejoin="round" stroke-miterlimit="10" stroke-width="2.5"/><path fill="none" stroke="rgb(153,51,0)" paint-order="fill stroke markers" d=" M 626.43240677201 345.0609238182595 L 537.2891061037984 306.63719643589036" stroke-opacity="0.6980392156862745" stroke-linecap="round" stroke-linejoin="round" stroke-miterlimit="10" stroke-width="2.5"/><path fill="none" stroke="rgb(153,51,0)" paint-order="fill stroke markers" d=" M 537.2891061037984 306.63719643589036 L 548.5848324166848 403.0494230829405" stroke-opacity="0.6980392156862745" stroke-linecap="round" stroke-linejoin="round" stroke-miterlimit="10" stroke-width="2.5"/><path fill="none" stroke="rgb(0,0,0)" paint-order="fill stroke markers" d=" M 626.43240677201 345.0609238182595 L 903.713644119349 464.5783591411295" stroke-opacity="0.6980392156862745" stroke-linecap="round" stroke-linejoin="round" stroke-miterlimit="10" stroke-width="2.5"/><path fill="none" stroke="rgb(0,0,0)" paint-order="fill stroke markers" d=" M 548.5848324166848 403.0494230829405 L 578.8385023314453 661.2730733319175" stroke-opacity="0.6980392156862745" stroke-linecap="round" stroke-linejoin="round" stroke-miterlimit="10" stroke-width="2.5"/><path fill="rgb(77,77,255)" stroke="none" paint-order="stroke fill markers" d=" M 553.5848324166848 403.0494230829405 C 553.5848324166848 405.81084683209446 551.3462561658388 408.0494230829405 548.5848324166848 408.0494230829405 C 545.8234086675308 408.0494230829405 543.5848324166848 405.81084683209446 543.5848324166848 403.0494230829405 C 543.5848324166848 400.28799933378656 545.8234086675308 398.0494230829405 548.5848324166848 398.0494230829405 C 551.3462561658388 398.0494230829405 553.5848324166848 400.28799933378656 553.5848324166848 403.0494230829405 Z" fill-opacity="1"/><path fill="none" stroke="rgb(0,0,0)" paint-order="fill stroke markers" d=" M 553.5848324166848 403.0494230829405 C 553.5848324166848 405.81084683209446 551.3462561658388 408.0494230829405 548.5848324166848 408.0494230829405 C 545.8234086675308 408.0494230829405 543.5848324166848 405.81084683209446 543.5848324166848 403.0494230829405 C 543.5848324166848 400.28799933378656 545.8234086675308 398.0494230829405 548.5848324166848 398.0494230829405 C 551.3462561658388 398.0494230829405 553.5848324166848 400.28799933378656 553.5848324166848 403.0494230829405 Z" stroke-opacity="1" stroke-linecap="round" stroke-linejoin="round" stroke-miterlimit="10"/><text fill="rgb(77,77,255)" stroke="none" font-family="geogebra-sans-serif, sans-serif" font-size="16px" font-style="normal" font-weight="normal" text-decoration="normal" x="553" y="393" text-anchor="start" dominant-baseline="alphabetic" fill-opacity="1">A</text><text fill="none" stroke="rgb(255,255,255)" font-family="geogebra-sans-serif, sans-serif" font-size="16px" font-style="normal" font-weight="normal" text-decoration="normal" x="553" y="393" text-anchor="start" dominant-baseline="alphabetic" stroke-opacity="1" stroke-linejoin="bevel" stroke-miterlimit="10" stroke-width="3">A</text><text fill="rgb(77,77,255)" stroke="none" font-family="geogebra-sans-serif, sans-serif" font-size="16px" font-style="normal" font-weight="normal" text-decoration="normal" x="553" y="393" text-anchor="start" dominant-baseline="alphabetic" fill-opacity="1">A</text><path fill="rgb(77,77,255)" stroke="none" paint-order="stroke fill markers" d=" M 631.43240677201 345.0609238182595 C 631.43240677201 347.82234756741343 629.193830521164 350.0609238182595 626.43240677201 350.0609238182595 C 623.670983022856 350.0609238182595 621.43240677201 347.82234756741343 621.43240677201 345.0609238182595 C 621.43240677201 342.29950006910553 623.670983022856 340.0609238182595 626.43240677201 340.0609238182595 C 629.193830521164 340.0609238182595 631.43240677201 342.29950006910553 631.43240677201 345.0609238182595 Z" fill-opacity="1"/><path fill="none" stroke="rgb(0,0,0)" paint-order="fill stroke markers" d=" M 631.43240677201 345.0609238182595 C 631.43240677201 347.82234756741343 629.193830521164 350.0609238182595 626.43240677201 350.0609238182595 C 623.670983022856 350.0609238182595 621.43240677201 347.82234756741343 621.43240677201 345.0609238182595 C 621.43240677201 342.29950006910553 623.670983022856 340.0609238182595 626.43240677201 340.0609238182595 C 629.193830521164 340.0609238182595 631.43240677201 342.29950006910553 631.43240677201 345.0609238182595 Z" stroke-opacity="1" stroke-linecap="round" stroke-linejoin="round" stroke-miterlimit="10"/><text fill="rgb(77,77,255)" stroke="none" font-family="geogebra-sans-serif, sans-serif" font-size="16px" font-style="normal" font-weight="normal" text-decoration="normal" x="630" y="335" text-anchor="start" dominant-baseline="alphabetic" fill-opacity="1">B</text><text fill="none" stroke="rgb(255,255,255)" font-family="geogebra-sans-serif, sans-serif" font-size="16px" font-style="normal" font-weight="normal" text-decoration="normal" x="630" y="335" text-anchor="start" dominant-baseline="alphabetic" stroke-opacity="1" stroke-linejoin="bevel" stroke-miterlimit="10" stroke-width="3">B</text><text fill="rgb(77,77,255)" stroke="none" font-family="geogebra-sans-serif, sans-serif" font-size="16px" font-style="normal" font-weight="normal" text-decoration="normal" x="630" y="335" text-anchor="start" dominant-baseline="alphabetic" fill-opacity="1">B</text><path fill="rgb(77,77,255)" stroke="none" paint-order="stroke fill markers" d=" M 694.9814470620715 175.8616040459711 C 694.9814470620715 178.62302779512507 692.7428708112255 180.8616040459711 689.9814470620715 180.8616040459711 C 687.2200233129175 180.8616040459711 684.9814470620715 178.62302779512507 684.9814470620715 175.8616040459711 C 684.9814470620715 173.10018029681711 687.2200233129175 170.8616040459711 689.9814470620715 170.8616040459711 C 692.7428708112255 170.8616040459711 694.9814470620715 173.10018029681711 694.9814470620715 175.8616040459711 Z" fill-opacity="1"/><path fill="none" stroke="rgb(0,0,0)" paint-order="fill stroke markers" d=" M 694.9814470620715 175.8616040459711 C 694.9814470620715 178.62302779512507 692.7428708112255 180.8616040459711 689.9814470620715 180.8616040459711 C 687.2200233129175 180.8616040459711 684.9814470620715 178.62302779512507 684.9814470620715 175.8616040459711 C 684.9814470620715 173.10018029681711 687.2200233129175 170.8616040459711 689.9814470620715 170.8616040459711 C 692.7428708112255 170.8616040459711 694.9814470620715 173.10018029681711 694.9814470620715 175.8616040459711 Z" stroke-opacity="1" stroke-linecap="round" stroke-linejoin="round" stroke-miterlimit="10"/><text fill="rgb(77,77,255)" stroke="none" font-family="geogebra-sans-serif, sans-serif" font-size="16px" font-style="normal" font-weight="normal" text-decoration="normal" x="694" y="166" text-anchor="start" dominant-baseline="alphabetic" fill-opacity="1">C</text><text fill="none" stroke="rgb(255,255,255)" font-family="geogebra-sans-serif, sans-serif" font-size="16px" font-style="normal" font-weight="normal" text-decoration="normal" x="694" y="166" text-anchor="start" dominant-baseline="alphabetic" stroke-opacity="1" stroke-linejoin="bevel" stroke-miterlimit="10" stroke-width="3">C</text><text fill="rgb(77,77,255)" stroke="none" font-family="geogebra-sans-serif, sans-serif" font-size="16px" font-style="normal" font-weight="normal" text-decoration="normal" x="694" y="166" text-anchor="start" dominant-baseline="alphabetic" fill-opacity="1">C</text><path fill="rgb(68,68,68)" stroke="none" paint-order="stroke fill markers" d=" M 542.2891061037984 306.63719643589036 C 542.2891061037984 309.3986201850443 540.0505298529524 311.63719643589036 537.2891061037984 311.63719643589036 C 534.5276823546444 311.63719643589036 532.2891061037984 309.3986201850443 532.2891061037984 306.63719643589036 C 532.2891061037984 303.8757726867364 534.5276823546444 301.63719643589036 537.2891061037984 301.63719643589036 C 540.0505298529524 301.63719643589036 542.2891061037984 303.8757726867364 542.2891061037984 306.63719643589036 Z" fill-opacity="1"/><path fill="none" stroke="rgb(0,0,0)" paint-order="fill stroke markers" d=" M 542.2891061037984 306.63719643589036 C 542.2891061037984 309.3986201850443 540.0505298529524 311.63719643589036 537.2891061037984 311.63719643589036 C 534.5276823546444 311.63719643589036 532.2891061037984 309.3986201850443 532.2891061037984 306.63719643589036 C 532.2891061037984 303.8757726867364 534.5276823546444 301.63719643589036 537.2891061037984 301.63719643589036 C 540.0505298529524 301.63719643589036 542.2891061037984 303.8757726867364 542.2891061037984 306.63719643589036 Z" stroke-opacity="1" stroke-linecap="round" stroke-linejoin="round" stroke-miterlimit="10"/><text fill="rgb(68,68,68)" stroke="none" font-family="geogebra-sans-serif, sans-serif" font-size="16px" font-style="normal" font-weight="normal" text-decoration="normal" x="541" y="297" text-anchor="start" dominant-baseline="alphabetic" fill-opacity="1">D</text><text fill="none" stroke="rgb(255,255,255)" font-family="geogebra-sans-serif, sans-serif" font-size="16px" font-style="normal" font-weight="normal" text-decoration="normal" x="541" y="297" text-anchor="start" dominant-baseline="alphabetic" stroke-opacity="1" stroke-linejoin="bevel" stroke-miterlimit="10" stroke-width="3">D</text><text fill="rgb(68,68,68)" stroke="none" font-family="geogebra-sans-serif, sans-serif" font-size="16px" font-style="normal" font-weight="normal" text-decoration="normal" x="541" y="297" text-anchor="start" dominant-baseline="alphabetic" fill-opacity="1">D</text><path fill="rgb(125,125,255)" stroke="none" paint-order="stroke fill markers" d=" M 583.8385023314453 661.2730733319175 C 583.8385023314453 664.0344970810715 581.5999260805993 666.2730733319175 578.8385023314453 666.2730733319175 C 576.0770785822913 666.2730733319175 573.8385023314453 664.0344970810715 573.8385023314453 661.2730733319175 C 573.8385023314453 658.5116495827635 576.0770785822913 656.2730733319175 578.8385023314453 656.2730733319175 C 581.5999260805993 656.2730733319175 583.8385023314453 658.5116495827635 583.8385023314453 661.2730733319175 Z" fill-opacity="1"/><path fill="none" stroke="rgb(0,0,0)" paint-order="fill stroke markers" d=" M 583.8385023314453 661.2730733319175 C 583.8385023314453 664.0344970810715 581.5999260805993 666.2730733319175 578.8385023314453 666.2730733319175 C 576.0770785822913 666.2730733319175 573.8385023314453 664.0344970810715 573.8385023314453 661.2730733319175 C 573.8385023314453 658.5116495827635 576.0770785822913 656.2730733319175 578.8385023314453 656.2730733319175 C 581.5999260805993 656.2730733319175 583.8385023314453 658.5116495827635 583.8385023314453 661.2730733319175 Z" stroke-opacity="1" stroke-linecap="round" stroke-linejoin="round" stroke-miterlimit="10"/><text fill="rgb(125,125,255)" stroke="none" font-family="geogebra-sans-serif, sans-serif" font-size="16px" font-style="normal" font-weight="normal" text-decoration="normal" x="583" y="651" text-anchor="start" dominant-baseline="alphabetic" fill-opacity="1">E</text><text fill="none" stroke="rgb(255,255,255)" font-family="geogebra-sans-serif, sans-serif" font-size="16px" font-style="normal" font-weight="normal" text-decoration="normal" x="583" y="651" text-anchor="start" dominant-baseline="alphabetic" stroke-opacity="1" stroke-linejoin="bevel" stroke-miterlimit="10" stroke-width="3">E</text><text fill="rgb(125,125,255)" stroke="none" font-family="geogebra-sans-serif, sans-serif" font-size="16px" font-style="normal" font-weight="normal" text-decoration="normal" x="583" y="651" text-anchor="start" dominant-baseline="alphabetic" fill-opacity="1">E</text><path fill="rgb(125,125,255)" stroke="none" paint-order="stroke fill markers" d=" M 908.713644119349 464.5783591411295 C 908.713644119349 467.33978289028346 906.4750678685031 469.5783591411295 903.713644119349 469.5783591411295 C 900.952220370195 469.5783591411295 898.713644119349 467.33978289028346 898.713644119349 464.5783591411295 C 898.713644119349 461.81693539197556 900.952220370195 459.5783591411295 903.713644119349 459.5783591411295 C 906.4750678685031 459.5783591411295 908.713644119349 461.81693539197556 908.713644119349 464.5783591411295 Z" fill-opacity="1"/><path fill="none" stroke="rgb(0,0,0)" paint-order="fill stroke markers" d=" M 908.713644119349 464.5783591411295 C 908.713644119349 467.33978289028346 906.4750678685031 469.5783591411295 903.713644119349 469.5783591411295 C 900.952220370195 469.5783591411295 898.713644119349 467.33978289028346 898.713644119349 464.5783591411295 C 898.713644119349 461.81693539197556 900.952220370195 459.5783591411295 903.713644119349 459.5783591411295 C 906.4750678685031 459.5783591411295 908.713644119349 461.81693539197556 908.713644119349 464.5783591411295 Z" stroke-opacity="1" stroke-linecap="round" stroke-linejoin="round" stroke-miterlimit="10"/><text fill="rgb(125,125,255)" stroke="none" font-family="geogebra-sans-serif, sans-serif" font-size="16px" font-style="normal" font-weight="normal" text-decoration="normal" x="908" y="455" text-anchor="start" dominant-baseline="alphabetic" fill-opacity="1">F</text><text fill="none" stroke="rgb(255,255,255)" font-family="geogebra-sans-serif, sans-serif" font-size="16px" font-style="normal" font-weight="normal" text-decoration="normal" x="908" y="455" text-anchor="start" dominant-baseline="alphabetic" stroke-opacity="1" stroke-linejoin="bevel" stroke-miterlimit="10" stroke-width="3">F</text><text fill="rgb(125,125,255)" stroke="none" font-family="geogebra-sans-serif, sans-serif" font-size="16px" font-style="normal" font-weight="normal" text-decoration="normal" x="908" y="455" text-anchor="start" dominant-baseline="alphabetic" fill-opacity="1">F</text><path fill="rgb(68,68,68)" stroke="none" paint-order="stroke fill markers" d=" M 796.41023050615 416.6028860619092 C 796.41023050615 418.81202506123236 794.6193695054732 420.6028860619092 792.41023050615 420.6028860619092 C 790.2010915068269 420.6028860619092 788.41023050615 418.81202506123236 788.41023050615 416.6028860619092 C 788.41023050615 414.39374706258604 790.2010915068269 412.6028860619092 792.41023050615 412.6028860619092 C 794.6193695054732 412.6028860619092 796.41023050615 414.39374706258604 796.41023050615 416.6028860619092 Z" fill-opacity="1"/><path fill="none" stroke="rgb(0,0,0)" paint-order="fill stroke markers" d=" M 796.41023050615 416.6028860619092 C 796.41023050615 418.81202506123236 794.6193695054732 420.6028860619092 792.41023050615 420.6028860619092 C 790.2010915068269 420.6028860619092 788.41023050615 418.81202506123236 788.41023050615 416.6028860619092 C 788.41023050615 414.39374706258604 790.2010915068269 412.6028860619092 792.41023050615 412.6028860619092 C 794.6193695054732 412.6028860619092 796.41023050615 414.39374706258604 796.41023050615 416.6028860619092 Z" stroke-opacity="1" stroke-linecap="round" stroke-linejoin="round" stroke-miterlimit="10"/><text fill="rgb(68,68,68)" stroke="none" font-family="geogebra-sans-serif, sans-serif" font-size="16px" font-style="normal" font-weight="normal" text-decoration="normal" x="796" y="409" text-anchor="start" dominant-baseline="alphabetic" fill-opacity="1">G</text><text fill="none" stroke="rgb(255,255,255)" font-family="geogebra-sans-serif, sans-serif" font-size="16px" font-style="normal" font-weight="normal" text-decoration="normal" x="796" y="409" text-anchor="start" dominant-baseline="alphabetic" stroke-opacity="1" stroke-linejoin="bevel" stroke-miterlimit="10" stroke-width="3">G</text><text fill="rgb(68,68,68)" stroke="none" font-family="geogebra-sans-serif, sans-serif" font-size="16px" font-style="normal" font-weight="normal" text-decoration="normal" x="796" y="409" text-anchor="start" dominant-baseline="alphabetic" fill-opacity="1">G</text><path fill="rgb(125,125,255)" stroke="none" paint-order="stroke fill markers" d=" M 475.7126414324514 253.30992918721586 C 475.7126414324514 256.0713529363698 473.47406518160534 258.30992918721586 470.7126414324514 258.30992918721586 C 467.95121768329744 258.30992918721586 465.7126414324514 256.0713529363698 465.7126414324514 253.30992918721586 C 465.7126414324514 250.54850543806188 467.95121768329744 248.30992918721586 470.7126414324514 248.30992918721586 C 473.47406518160534 248.30992918721586 475.7126414324514 250.54850543806188 475.7126414324514 253.30992918721586 Z" fill-opacity="1"/><path fill="none" stroke="rgb(0,0,0)" paint-order="fill stroke markers" d=" M 475.7126414324514 253.30992918721586 C 475.7126414324514 256.0713529363698 473.47406518160534 258.30992918721586 470.7126414324514 258.30992918721586 C 467.95121768329744 258.30992918721586 465.7126414324514 256.0713529363698 465.7126414324514 253.30992918721586 C 465.7126414324514 250.54850543806188 467.95121768329744 248.30992918721586 470.7126414324514 248.30992918721586 C 473.47406518160534 248.30992918721586 475.7126414324514 250.54850543806188 475.7126414324514 253.30992918721586 Z" stroke-opacity="1" stroke-linecap="round" stroke-linejoin="round" stroke-miterlimit="10"/><text fill="rgb(125,125,255)" stroke="none" font-family="geogebra-sans-serif, sans-serif" font-size="16px" font-style="normal" font-weight="normal" text-decoration="normal" x="475" y="243" text-anchor="start" dominant-baseline="alphabetic" fill-opacity="1">H</text><text fill="none" stroke="rgb(255,255,255)" font-family="geogebra-sans-serif, sans-serif" font-size="16px" font-style="normal" font-weight="normal" text-decoration="normal" x="475" y="243" text-anchor="start" dominant-baseline="alphabetic" stroke-opacity="1" stroke-linejoin="bevel" stroke-miterlimit="10" stroke-width="3">H</text><text fill="rgb(125,125,255)" stroke="none" font-family="geogebra-sans-serif, sans-serif" font-size="16px" font-style="normal" font-weight="normal" text-decoration="normal" x="475" y="243" text-anchor="start" dominant-baseline="alphabetic" fill-opacity="1">H</text><path fill="rgb(125,125,255)" stroke="none" paint-order="stroke fill markers" d=" M 269.63023912820836 253.37949022511162 C 269.63023912820836 256.1409139742656 267.3916628773623 258.3794902251116 264.63023912820836 258.3794902251116 C 261.8688153790544 258.3794902251116 259.63023912820836 256.1409139742656 259.63023912820836 253.37949022511162 C 259.63023912820836 250.61806647595765 261.8688153790544 248.37949022511162 264.63023912820836 248.37949022511162 C 267.3916628773623 248.37949022511162 269.63023912820836 250.61806647595765 269.63023912820836 253.37949022511162 Z" fill-opacity="1"/><path fill="none" stroke="rgb(0,0,0)" paint-order="fill stroke markers" d=" M 269.63023912820836 253.37949022511162 C 269.63023912820836 256.1409139742656 267.3916628773623 258.3794902251116 264.63023912820836 258.3794902251116 C 261.8688153790544 258.3794902251116 259.63023912820836 256.1409139742656 259.63023912820836 253.37949022511162 C 259.63023912820836 250.61806647595765 261.8688153790544 248.37949022511162 264.63023912820836 248.37949022511162 C 267.3916628773623 248.37949022511162 269.63023912820836 250.61806647595765 269.63023912820836 253.37949022511162 Z" stroke-opacity="1" stroke-linecap="round" stroke-linejoin="round" stroke-miterlimit="10"/><text fill="rgb(125,125,255)" stroke="none" font-family="geogebra-sans-serif, sans-serif" font-size="16px" font-style="normal" font-weight="normal" text-decoration="normal" x="269" y="243" text-anchor="start" dominant-baseline="alphabetic" fill-opacity="1">K</text><text fill="none" stroke="rgb(255,255,255)" font-family="geogebra-sans-serif, sans-serif" font-size="16px" font-style="normal" font-weight="normal" text-decoration="normal" x="269" y="243" text-anchor="start" dominant-baseline="alphabetic" stroke-opacity="1" stroke-linejoin="bevel" stroke-miterlimit="10" stroke-width="3">K</text><text fill="rgb(125,125,255)" stroke="none" font-family="geogebra-sans-serif, sans-serif" font-size="16px" font-style="normal" font-weight="normal" text-decoration="normal" x="269" y="243" text-anchor="start" dominant-baseline="alphabetic" fill-opacity="1">K</text><path fill="rgb(68,68,68)" stroke="none" paint-order="stroke fill markers" d=" M 573.6165875441669 582.5614160233861 C 573.6165875441669 584.7705550227092 571.8257265434901 586.5614160233861 569.6165875441669 586.5614160233861 C 567.4074485448438 586.5614160233861 565.6165875441669 584.7705550227092 565.6165875441669 582.5614160233861 C 565.6165875441669 580.3522770240629 567.4074485448438 578.5614160233861 569.6165875441669 578.5614160233861 C 571.8257265434901 578.5614160233861 573.6165875441669 580.3522770240629 573.6165875441669 582.5614160233861 Z" fill-opacity="1"/><path fill="none" stroke="rgb(0,0,0)" paint-order="fill stroke markers" d=" M 573.6165875441669 582.5614160233861 C 573.6165875441669 584.7705550227092 571.8257265434901 586.5614160233861 569.6165875441669 586.5614160233861 C 567.4074485448438 586.5614160233861 565.6165875441669 584.7705550227092 565.6165875441669 582.5614160233861 C 565.6165875441669 580.3522770240629 567.4074485448438 578.5614160233861 569.6165875441669 578.5614160233861 C 571.8257265434901 578.5614160233861 573.6165875441669 580.3522770240629 573.6165875441669 582.5614160233861 Z" stroke-opacity="1" stroke-linecap="round" stroke-linejoin="round" stroke-miterlimit="10"/><text fill="rgb(68,68,68)" stroke="none" font-family="geogebra-sans-serif, sans-serif" font-size="16px" font-style="normal" font-weight="normal" text-decoration="normal" x="574" y="575" text-anchor="start" dominant-baseline="alphabetic" fill-opacity="1">L</text><text fill="none" stroke="rgb(255,255,255)" font-family="geogebra-sans-serif, sans-serif" font-size="16px" font-style="normal" font-weight="normal" text-decoration="normal" x="574" y="575" text-anchor="start" dominant-baseline="alphabetic" stroke-opacity="1" stroke-linejoin="bevel" stroke-miterlimit="10" stroke-width="3">L</text><text fill="rgb(68,68,68)" stroke="none" font-family="geogebra-sans-serif, sans-serif" font-size="16px" font-style="normal" font-weight="normal" text-decoration="normal" x="574" y="575" text-anchor="start" dominant-baseline="alphabetic" fill-opacity="1">L</text></g></g></svg>