<svg version="1.1" xmlns="http://www.w3.org/2000/svg" xmlns:xlink="http://www.w3.org/1999/xlink" width="1148" height="700"><defs><clipPath id="TvKMMIxgyrWK"><path fill="none" stroke="none" d=" M 0 0 L 1148 0 L 1148 700 L 0 700 L 0 0 Z"/></clipPath></defs><g transform="scale(1,1)" clip-path="url(#TvKMMIxgyrWK)"><g><rect fill="rgb(255,255,255)" stroke="none" x="0" y="0" width="1148" height="700" fill-opacity="1"/><path fill="none" stroke="rgb(0,0,0)" paint-order="fill stroke markers" d=" M 607.002747232013 364 C 607.002747232013 464.5173417235494 525.5173417235494 546.002747232013 425 546.002747232013 C 324.4826582764506 546.002747232013 242.99725276798702 464.5173417235494 242.99725276798702 364 C 242.99725276798702 263.4826582764506 324.4826582764506 181.99725276798702 425 181.99725276798702 C 525.5173417235494 181.99725276798702 607.002747232013 263.4826582764506 607.002747232013 364 Z" stroke-opacity="0.6980392156862745" stroke-linecap="round" stroke-linejoin="round" stroke-miterlimit="10" stroke-width="2.5"/><path fill="none" stroke="rgb(0,0,0)" paint-order="fill stroke markers" d=" M 789.002747232013 363 C 789.002747232013 463.5173417235494 707.5173417235494 545.002747232013 607 545.002747232013 C 506.4826582764506 545.002747232013 424.997252767987 463.5173417235494 424.997252767987 363 C 424.997252767987 262.4826582764506 506.4826582764506 180.99725276798702 607 180.99725276798702 C 707.5173417235494 180.99725276798702 789.002747232013 262.4826582764506 789.002747232013 363 Z" stroke-opacity="0.6980392156862745" stroke-linecap="round" stroke-linejoin="round" stroke-miterlimit="10" stroke-width="2.5"/><path fill="none" stroke="rgb(0,0,0)" paint-order="fill stroke markers" d=" M 425 364 L 607 363" stroke-opacity="0.6980392156862745" stroke-linecap="round" stroke-linejoin="round" stroke-miterlimit="10" stroke-width="2.5"/><path fill="none" stroke="rgb(0,0,0)" paint-order="fill stroke markers" d=" M 425 364 L 515.1339745962156 205.88337651123217" stroke-opacity="0.6980392156862745" stroke-linecap="round" stroke-linejoin="round" stroke-miterlimit="10" stroke-width="2.5"/><path fill="none" stroke="rgb(0,0,0)" paint-order="fill stroke markers" d=" M 607 363 L 515.1339745962156 205.88337651123217" stroke-opacity="0.6980392156862745" stroke-linecap="round" stroke-linejoin="round" stroke-miterlimit="10" stroke-width="2.5"/><path fill="rgb(77,77,255)" stroke="none" paint-order="stroke fill markers" d=" M 430 364 C 430 366.76142374915395 427.76142374915395 369 425 369 C 422.23857625084605 369 420 366.76142374915395 420 364 C 420 361.23857625084605 422.23857625084605 359 425 359 C 427.76142374915395 359 430 361.23857625084605 430 364 Z" fill-opacity="1"/><path fill="none" stroke="rgb(0,0,0)" paint-order="fill stroke markers" d=" M 430 364 C 430 366.76142374915395 427.76142374915395 369 425 369 C 422.23857625084605 369 420 366.76142374915395 420 364 C 420 361.23857625084605 422.23857625084605 359 425 359 C 427.76142374915395 359 430 361.23857625084605 430 364 Z" stroke-opacity="1" stroke-linecap="round" stroke-linejoin="round" stroke-miterlimit="10"/><text fill="rgb(77,77,255)" stroke="none" font-family="geogebra-sans-serif, sans-serif" font-size="16px" font-style="normal" font-weight="normal" text-decoration="normal" x="429" y="354" text-anchor="start" dominant-baseline="alphabetic" fill-opacity="1">A</text><text fill="none" stroke="rgb(255,255,255)" font-family="geogebra-sans-serif, sans-serif" font-size="16px" font-style="normal" font-weight="normal" text-decoration="normal" x="429" y="354" text-anchor="start" dominant-baseline="alphabetic" stroke-opacity="1" stroke-linejoin="bevel" stroke-miterlimit="10" stroke-width="3">A</text><text fill="rgb(77,77,255)" stroke="none" font-family="geogebra-sans-serif, sans-serif" font-size="16px" font-style="normal" font-weight="normal" text-decoration="normal" x="429" y="354" text-anchor="start" dominant-baseline="alphabetic" fill-opacity="1">A</text><path fill="rgb(77,77,255)" stroke="none" paint-order="stroke fill markers" d=" M 612 363 C 612 365.76142374915395 609.761423749154 368 607 368 C 604.238576250846 368 602 365.76142374915395 602 363 C 602 360.23857625084605 604.238576250846 358 607 358 C 609.761423749154 358 612 360.23857625084605 612 363 Z" fill-opacity="1"/><path fill="none" stroke="rgb(0,0,0)" paint-order="fill stroke markers" d=" M 612 363 C 612 365.76142374915395 609.761423749154 368 607 368 C 604.238576250846 368 602 365.76142374915395 602 363 C 602 360.23857625084605 604.238576250846 358 607 358 C 609.761423749154 358 612 360.23857625084605 612 363 Z" stroke-opacity="1" stroke-linecap="round" stroke-linejoin="round" stroke-miterlimit="10"/><text fill="rgb(77,77,255)" stroke="none" font-family="geogebra-sans-serif, sans-serif" font-size="16px" font-style="normal" font-weight="normal" text-decoration="normal" x="611" y="353" text-anchor="start" dominant-baseline="alphabetic" fill-opacity="1">B</text><text fill="none" stroke="rgb(255,255,255)" font-family="geogebra-sans-serif, sans-serif" font-size="16px" font-style="normal" font-weight="normal" text-decoration="normal" x="611" y="353" text-anchor="start" dominant-baseline="alphabetic" stroke-opacity="1" stroke-linejoin="bevel" stroke-miterlimit="10" stroke-width="3">B</text><text fill="rgb(77,77,255)" stroke="none" font-family="geogebra-sans-serif, sans-serif" font-size="16px" font-style="normal" font-weight="normal" text-decoration="normal" x="611" y="353" text-anchor="start" dominant-baseline="alphabetic" fill-opacity="1">B</text><path fill="rgb(68,68,68)" stroke="none" paint-order="stroke fill markers" d=" M 519.1339745962156 205.88337651123217 C 519.1339745962156 208.09251551055536 517.3431135955387 209.88337651123217 515.1339745962156 209.88337651123217 C 512.9248355968924 209.88337651123217 511.1339745962156 208.09251551055536 511.1339745962156 205.88337651123217 C 511.1339745962156 203.67423751190898 512.9248355968924 201.88337651123217 515.1339745962156 201.88337651123217 C 517.3431135955387 201.88337651123217 519.1339745962156 203.67423751190898 519.1339745962156 205.88337651123217 Z" fill-opacity="1"/><path fill="none" stroke="rgb(0,0,0)" paint-order="fill stroke markers" d=" M 519.1339745962156 205.88337651123217 C 519.1339745962156 208.09251551055536 517.3431135955387 209.88337651123217 515.1339745962156 209.88337651123217 C 512.9248355968924 209.88337651123217 511.1339745962156 208.09251551055536 511.1339745962156 205.88337651123217 C 511.1339745962156 203.67423751190898 512.9248355968924 201.88337651123217 515.1339745962156 201.88337651123217 C 517.3431135955387 201.88337651123217 519.1339745962156 203.67423751190898 519.1339745962156 205.88337651123217 Z" stroke-opacity="1" stroke-linecap="round" stroke-linejoin="round" stroke-miterlimit="10"/><text fill="rgb(68,68,68)" stroke="none" font-family="geogebra-sans-serif, sans-serif" font-size="16px" font-style="normal" font-weight="normal" text-decoration="normal" x="519" y="198" text-anchor="start" dominant-baseline="alphabetic" fill-opacity="1">C</text><text fill="none" stroke="rgb(255,255,255)" font-family="geogebra-sans-serif, sans-serif" font-size="16px" font-style="normal" font-weight="normal" text-decoration="normal" x="519" y="198" text-anchor="start" dominant-baseline="alphabetic" stroke-opacity="1" stroke-linejoin="bevel" stroke-miterlimit="10" stroke-width="3">C</text><text fill="rgb(68,68,68)" stroke="none" font-family="geogebra-sans-serif, sans-serif" font-size="16px" font-style="normal" font-weight="normal" text-decoration="normal" x="519" y="198" text-anchor="start" dominant-baseline="alphabetic" fill-opacity="1">C</text><path fill="rgb(125,125,255)" stroke="none" paint-order="stroke fill markers" d=" M 248.04071481385483 367.9772521352163 C 248.04071481385483 370.73867588437025 245.8021385630088 372.9772521352163 243.04071481385483 372.9772521352163 C 240.27929106470086 372.9772521352163 238.04071481385483 370.73867588437025 238.04071481385483 367.9772521352163 C 238.04071481385483 365.21582838606236 240.27929106470086 362.9772521352163 243.04071481385483 362.9772521352163 C 245.8021385630088 362.9772521352163 248.04071481385483 365.21582838606236 248.04071481385483 367.9772521352163 Z" fill-opacity="1"/><path fill="none" stroke="rgb(0,0,0)" paint-order="fill stroke markers" d=" M 248.04071481385483 367.9772521352163 C 248.04071481385483 370.73867588437025 245.8021385630088 372.9772521352163 243.04071481385483 372.9772521352163 C 240.27929106470086 372.9772521352163 238.04071481385483 370.73867588437025 238.04071481385483 367.9772521352163 C 238.04071481385483 365.21582838606236 240.27929106470086 362.9772521352163 243.04071481385483 362.9772521352163 C 245.8021385630088 362.9772521352163 248.04071481385483 365.21582838606236 248.04071481385483 367.9772521352163 Z" stroke-opacity="1" stroke-linecap="round" stroke-linejoin="round" stroke-miterlimit="10"/><text fill="rgb(125,125,255)" stroke="none" font-family="geogebra-sans-serif, sans-serif" font-size="16px" font-style="normal" font-weight="normal" text-decoration="normal" x="247" y="358" text-anchor="start" dominant-baseline="alphabetic" fill-opacity="1">D</text><text fill="none" stroke="rgb(255,255,255)" font-family="geogebra-sans-serif, sans-serif" font-size="16px" font-style="normal" font-weight="normal" text-decoration="normal" x="247" y="358" text-anchor="start" dominant-baseline="alphabetic" stroke-opacity="1" stroke-linejoin="bevel" stroke-miterlimit="10" stroke-width="3">D</text><text fill="rgb(125,125,255)" stroke="none" font-family="geogebra-sans-serif, sans-serif" font-size="16px" font-style="normal" font-weight="normal" text-decoration="normal" x="247" y="358" text-anchor="start" dominant-baseline="alphabetic" fill-opacity="1">D</text><path fill="rgb(125,125,255)" stroke="none" paint-order="stroke fill markers" d=" M 794 362 C 794 364.76142374915395 791.761423749154 367 789 367 C 786.238576250846 367 784 364.76142374915395 784 362 C 784 359.23857625084605 786.238576250846 357 789 357 C 791.761423749154 357 794 359.23857625084605 794 362 Z" fill-opacity="1"/><path fill="none" stroke="rgb(0,0,0)" paint-order="fill stroke markers" d=" M 794 362 C 794 364.76142374915395 791.761423749154 367 789 367 C 786.238576250846 367 784 364.76142374915395 784 362 C 784 359.23857625084605 786.238576250846 357 789 357 C 791.761423749154 357 794 359.23857625084605 794 362 Z" stroke-opacity="1" stroke-linecap="round" stroke-linejoin="round" stroke-miterlimit="10"/><text fill="rgb(125,125,255)" stroke="none" font-family="geogebra-sans-serif, sans-serif" font-size="16px" font-style="normal" font-weight="normal" text-decoration="normal" x="793" y="352" text-anchor="start" dominant-baseline="alphabetic" fill-opacity="1">E</text><text fill="none" stroke="rgb(255,255,255)" font-family="geogebra-sans-serif, sans-serif" font-size="16px" font-style="normal" font-weight="normal" text-decoration="normal" x="793" y="352" text-anchor="start" dominant-baseline="alphabetic" stroke-opacity="1" stroke-linejoin="bevel" stroke-miterlimit="10" stroke-width="3">E</text><text fill="rgb(125,125,255)" stroke="none" font-family="geogebra-sans-serif, sans-serif" font-size="16px" font-style="normal" font-weight="normal" text-decoration="normal" x="793" y="352" text-anchor="start" dominant-baseline="alphabetic" fill-opacity="1">E</text></g></g></svg>