<?xml version="1.0" encoding="UTF-8" standalone="no"?>
<svg
   version="1.1"
   width="690.57806"
   height="673.14618"
   id="svg135"
   sodipodi:docname="prop2.svg"
   inkscape:version="1.1.2 (b8e25be833, 2022-02-05)"
   xmlns:inkscape="http://www.inkscape.org/namespaces/inkscape"
   xmlns:sodipodi="http://sodipodi.sourceforge.net/DTD/sodipodi-0.dtd"
   xmlns="http://www.w3.org/2000/svg"
   xmlns:svg="http://www.w3.org/2000/svg">
  <sodipodi:namedview
     id="namedview137"
     pagecolor="#ffffff"
     bordercolor="#666666"
     borderopacity="1.0"
     inkscape:pageshadow="2"
     inkscape:pageopacity="0.0"
     inkscape:pagecheckerboard="0"
     showgrid="false"
     inkscape:zoom="1.1542857"
     inkscape:cx="336.57178"
     inkscape:cy="270.7302"
     inkscape:window-width="1920"
     inkscape:window-height="1001"
     inkscape:window-x="-9"
     inkscape:window-y="-9"
     inkscape:window-maximized="1"
     inkscape:current-layer="g131" />
  <defs
     id="defs5">
    <clipPath
       id="uKuSaSrecusl">
      <path
         fill="none"
         stroke="none"
         d="M 0,0 H 1148 V 700 H 0 Z"
         id="path2" />
    </clipPath>
  </defs>
  <g
     clip-path="url(#uKuSaSrecusl)"
     id="g133"
     transform="translate(-237.37241,-9.527112)">
    <g
       id="g131">
      <rect
         fill="#ffffff"
         stroke="none"
         x="237.37241"
         y="9.527112"
         width="690.57806"
         height="673.14618"
         fill-opacity="1"
         id="rect7"
         style="stroke-width:0.999994" />
      <path
         fill="#993300"
         stroke="none"
         paint-order="stroke fill markers"
         fill-rule="evenodd"
         d="m 548.58483,403.04942 77.84758,-57.9885 -89.1433,-38.42372 z"
         fill-opacity="0.0980392"
         id="path9" />
      <path
         fill="none"
         stroke="#993300"
         paint-order="fill stroke markers"
         d="m 548.58483,403.04942 77.84758,-57.9885 -89.1433,-38.42372 z"
         stroke-opacity="0.698039"
         stroke-linecap="round"
         stroke-linejoin="round"
         stroke-miterlimit="10"
         stroke-width="2.5"
         id="path11" />
      <path
         fill="none"
         stroke="#000000"
         paint-order="fill stroke markers"
         d="m 807.17225,345.06092 c 0,99.81986 -80.91999,180.73985 -180.73984,180.73985 -99.81986,0 -180.73984,-80.91999 -180.73984,-180.73985 0,-99.81985 80.91998,-180.73984 180.73984,-180.73984 99.81985,0 180.73984,80.91999 180.73984,180.73984 z"
         stroke-opacity="0.698039"
         stroke-linecap="round"
         stroke-linejoin="round"
         stroke-miterlimit="10"
         stroke-width="2.5"
         id="path13" />
      <path
         fill="none"
         stroke="#000000"
         paint-order="fill stroke markers"
         d="m 815.10063,306.6372 c 0,153.43106 -124.38046,277.81152 -277.81152,277.81152 -153.43107,0 -277.81152,-124.38046 -277.81152,-277.81152 0,-153.43107 124.38045,-277.811524 277.81152,-277.811524 153.43106,0 277.81152,124.380454 277.81152,277.811524 z"
         stroke-opacity="0.698039"
         stroke-linecap="round"
         stroke-linejoin="round"
         stroke-miterlimit="10"
         stroke-width="2.5"
         id="path15" />
      <path
         fill="none"
         stroke="#000000"
         paint-order="fill stroke markers"
         d="m 548.58483,403.04942 77.84758,-57.9885"
         stroke-opacity="0.698039"
         stroke-linecap="round"
         stroke-linejoin="round"
         stroke-miterlimit="10"
         stroke-width="2.5"
         id="path17" />
      <path
         fill="none"
         stroke="#000000"
         paint-order="fill stroke markers"
         d="M 626.43241,345.06092 689.98145,175.8616"
         stroke-opacity="0.698039"
         stroke-linecap="round"
         stroke-linejoin="round"
         stroke-miterlimit="10"
         stroke-width="2.5"
         id="path19" />
      <path
         fill="none"
         stroke="#993300"
         paint-order="fill stroke markers"
         d="m 548.58483,403.04942 77.84758,-57.9885"
         stroke-opacity="0.698039"
         stroke-linecap="round"
         stroke-linejoin="round"
         stroke-miterlimit="10"
         stroke-width="2.5"
         id="path21" />
      <path
         fill="none"
         stroke="#993300"
         paint-order="fill stroke markers"
         d="M 626.43241,345.06092 537.28911,306.6372"
         stroke-opacity="0.698039"
         stroke-linecap="round"
         stroke-linejoin="round"
         stroke-miterlimit="10"
         stroke-width="2.5"
         id="path23" />
      <path
         fill="none"
         stroke="#993300"
         paint-order="fill stroke markers"
         d="m 537.28911,306.6372 11.29572,96.41222"
         stroke-opacity="0.698039"
         stroke-linecap="round"
         stroke-linejoin="round"
         stroke-miterlimit="10"
         stroke-width="2.5"
         id="path25" />
      <path
         fill="none"
         stroke="#000000"
         paint-order="fill stroke markers"
         d="M 626.43241,345.06092 903.71364,464.57836"
         stroke-opacity="0.698039"
         stroke-linecap="round"
         stroke-linejoin="round"
         stroke-miterlimit="10"
         stroke-width="2.5"
         id="path27" />
      <path
         fill="none"
         stroke="#000000"
         paint-order="fill stroke markers"
         d="M 548.58483,403.04942 578.8385,661.27307"
         stroke-opacity="0.698039"
         stroke-linecap="round"
         stroke-linejoin="round"
         stroke-miterlimit="10"
         stroke-width="2.5"
         id="path29" />
      <path
         fill="#4d4dff"
         stroke="none"
         paint-order="stroke fill markers"
         d="m 553.58483,403.04942 c 0,2.76143 -2.23857,5 -5,5 -2.76142,0 -5,-2.23857 -5,-5 0,-2.76142 2.23858,-5 5,-5 2.76143,0 5,2.23858 5,5 z"
         fill-opacity="1"
         id="path31" />
      <path
         fill="none"
         stroke="#000000"
         paint-order="fill stroke markers"
         d="m 553.58483,403.04942 c 0,2.76143 -2.23857,5 -5,5 -2.76142,0 -5,-2.23857 -5,-5 0,-2.76142 2.23858,-5 5,-5 2.76143,0 5,2.23858 5,5 z"
         stroke-opacity="1"
         stroke-linecap="round"
         stroke-linejoin="round"
         stroke-miterlimit="10"
         id="path33" />
      <text
         fill="#4d4dff"
         stroke="none"
         font-family="geogebra-sans-serif, sans-serif"
         font-size="16px"
         font-style="normal"
         font-weight="normal"
         text-decoration="normal"
         x="553"
         y="393"
         text-anchor="start"
         dominant-baseline="alphabetic"
         fill-opacity="1"
         id="text35">A</text>
      <text
         fill="none"
         stroke="#ffffff"
         font-family="geogebra-sans-serif, sans-serif"
         font-size="16px"
         font-style="normal"
         font-weight="normal"
         text-decoration="normal"
         x="553"
         y="393"
         text-anchor="start"
         dominant-baseline="alphabetic"
         stroke-opacity="1"
         stroke-linejoin="bevel"
         stroke-miterlimit="10"
         stroke-width="3"
         id="text37">A</text>
      <text
         fill="#4d4dff"
         stroke="none"
         font-family="geogebra-sans-serif, sans-serif"
         font-size="16px"
         font-style="normal"
         font-weight="normal"
         text-decoration="normal"
         x="553"
         y="393"
         text-anchor="start"
         dominant-baseline="alphabetic"
         fill-opacity="1"
         id="text39">A</text>
      <path
         fill="#4d4dff"
         stroke="none"
         paint-order="stroke fill markers"
         d="m 631.43241,345.06092 c 0,2.76143 -2.23858,5 -5,5 -2.76143,0 -5,-2.23857 -5,-5 0,-2.76142 2.23857,-5 5,-5 2.76142,0 5,2.23858 5,5 z"
         fill-opacity="1"
         id="path41" />
      <path
         fill="none"
         stroke="#000000"
         paint-order="fill stroke markers"
         d="m 631.43241,345.06092 c 0,2.76143 -2.23858,5 -5,5 -2.76143,0 -5,-2.23857 -5,-5 0,-2.76142 2.23857,-5 5,-5 2.76142,0 5,2.23858 5,5 z"
         stroke-opacity="1"
         stroke-linecap="round"
         stroke-linejoin="round"
         stroke-miterlimit="10"
         id="path43" />
      <text
         fill="#4d4dff"
         stroke="none"
         font-family="geogebra-sans-serif, sans-serif"
         font-size="16px"
         font-style="normal"
         font-weight="normal"
         text-decoration="normal"
         x="630"
         y="335"
         text-anchor="start"
         dominant-baseline="alphabetic"
         fill-opacity="1"
         id="text45">B</text>
      <text
         fill="none"
         stroke="#ffffff"
         font-family="geogebra-sans-serif, sans-serif"
         font-size="16px"
         font-style="normal"
         font-weight="normal"
         text-decoration="normal"
         x="630"
         y="335"
         text-anchor="start"
         dominant-baseline="alphabetic"
         stroke-opacity="1"
         stroke-linejoin="bevel"
         stroke-miterlimit="10"
         stroke-width="3"
         id="text47">B</text>
      <text
         fill="#4d4dff"
         stroke="none"
         font-family="geogebra-sans-serif, sans-serif"
         font-size="16px"
         font-style="normal"
         font-weight="normal"
         text-decoration="normal"
         x="630"
         y="335"
         text-anchor="start"
         dominant-baseline="alphabetic"
         fill-opacity="1"
         id="text49">B</text>
      <path
         fill="#4d4dff"
         stroke="none"
         paint-order="stroke fill markers"
         d="m 694.98145,175.8616 c 0,2.76143 -2.23858,5 -5,5 -2.76143,0 -5,-2.23857 -5,-5 0,-2.76142 2.23857,-5 5,-5 2.76142,0 5,2.23858 5,5 z"
         fill-opacity="1"
         id="path51" />
      <path
         fill="none"
         stroke="#000000"
         paint-order="fill stroke markers"
         d="m 694.98145,175.8616 c 0,2.76143 -2.23858,5 -5,5 -2.76143,0 -5,-2.23857 -5,-5 0,-2.76142 2.23857,-5 5,-5 2.76142,0 5,2.23858 5,5 z"
         stroke-opacity="1"
         stroke-linecap="round"
         stroke-linejoin="round"
         stroke-miterlimit="10"
         id="path53" />
      <text
         fill="#4d4dff"
         stroke="none"
         font-family="geogebra-sans-serif, sans-serif"
         font-size="16px"
         font-style="normal"
         font-weight="normal"
         text-decoration="normal"
         x="694"
         y="166"
         text-anchor="start"
         dominant-baseline="alphabetic"
         fill-opacity="1"
         id="text55">C</text>
      <text
         fill="none"
         stroke="#ffffff"
         font-family="geogebra-sans-serif, sans-serif"
         font-size="16px"
         font-style="normal"
         font-weight="normal"
         text-decoration="normal"
         x="694"
         y="166"
         text-anchor="start"
         dominant-baseline="alphabetic"
         stroke-opacity="1"
         stroke-linejoin="bevel"
         stroke-miterlimit="10"
         stroke-width="3"
         id="text57">C</text>
      <text
         fill="#4d4dff"
         stroke="none"
         font-family="geogebra-sans-serif, sans-serif"
         font-size="16px"
         font-style="normal"
         font-weight="normal"
         text-decoration="normal"
         x="694"
         y="166"
         text-anchor="start"
         dominant-baseline="alphabetic"
         fill-opacity="1"
         id="text59">C</text>
      <path
         fill="#444444"
         stroke="none"
         paint-order="stroke fill markers"
         d="m 542.28911,306.6372 c 0,2.76142 -2.23858,5 -5,5 -2.76143,0 -5,-2.23858 -5,-5 0,-2.76143 2.23857,-5 5,-5 2.76142,0 5,2.23857 5,5 z"
         fill-opacity="1"
         id="path61" />
      <path
         fill="none"
         stroke="#000000"
         paint-order="fill stroke markers"
         d="m 542.28911,306.6372 c 0,2.76142 -2.23858,5 -5,5 -2.76143,0 -5,-2.23858 -5,-5 0,-2.76143 2.23857,-5 5,-5 2.76142,0 5,2.23857 5,5 z"
         stroke-opacity="1"
         stroke-linecap="round"
         stroke-linejoin="round"
         stroke-miterlimit="10"
         id="path63" />
      <text
         fill="#444444"
         stroke="none"
         font-family="geogebra-sans-serif, sans-serif"
         font-size="16px"
         font-style="normal"
         font-weight="normal"
         text-decoration="normal"
         x="541"
         y="297"
         text-anchor="start"
         dominant-baseline="alphabetic"
         fill-opacity="1"
         id="text65">D</text>
      <text
         fill="none"
         stroke="#ffffff"
         font-family="geogebra-sans-serif, sans-serif"
         font-size="16px"
         font-style="normal"
         font-weight="normal"
         text-decoration="normal"
         x="541"
         y="297"
         text-anchor="start"
         dominant-baseline="alphabetic"
         stroke-opacity="1"
         stroke-linejoin="bevel"
         stroke-miterlimit="10"
         stroke-width="3"
         id="text67">D</text>
      <text
         fill="#444444"
         stroke="none"
         font-family="geogebra-sans-serif, sans-serif"
         font-size="16px"
         font-style="normal"
         font-weight="normal"
         text-decoration="normal"
         x="541"
         y="297"
         text-anchor="start"
         dominant-baseline="alphabetic"
         fill-opacity="1"
         id="text69">D</text>
      <path
         fill="#7d7dff"
         stroke="none"
         paint-order="stroke fill markers"
         d="m 583.8385,661.27307 c 0,2.76143 -2.23857,5 -5,5 -2.76142,0 -5,-2.23857 -5,-5 0,-2.76142 2.23858,-5 5,-5 2.76143,0 5,2.23858 5,5 z"
         fill-opacity="1"
         id="path71" />
      <path
         fill="none"
         stroke="#000000"
         paint-order="fill stroke markers"
         d="m 583.8385,661.27307 c 0,2.76143 -2.23857,5 -5,5 -2.76142,0 -5,-2.23857 -5,-5 0,-2.76142 2.23858,-5 5,-5 2.76143,0 5,2.23858 5,5 z"
         stroke-opacity="1"
         stroke-linecap="round"
         stroke-linejoin="round"
         stroke-miterlimit="10"
         id="path73" />
      <text
         fill="#7d7dff"
         stroke="none"
         font-family="geogebra-sans-serif, sans-serif"
         font-size="16px"
         font-style="normal"
         font-weight="normal"
         text-decoration="normal"
         x="583"
         y="651"
         text-anchor="start"
         dominant-baseline="alphabetic"
         fill-opacity="1"
         id="text75">E</text>
      <text
         fill="none"
         stroke="#ffffff"
         font-family="geogebra-sans-serif, sans-serif"
         font-size="16px"
         font-style="normal"
         font-weight="normal"
         text-decoration="normal"
         x="583"
         y="651"
         text-anchor="start"
         dominant-baseline="alphabetic"
         stroke-opacity="1"
         stroke-linejoin="bevel"
         stroke-miterlimit="10"
         stroke-width="3"
         id="text77">E</text>
      <text
         fill="#7d7dff"
         stroke="none"
         font-family="geogebra-sans-serif, sans-serif"
         font-size="16px"
         font-style="normal"
         font-weight="normal"
         text-decoration="normal"
         x="583"
         y="651"
         text-anchor="start"
         dominant-baseline="alphabetic"
         fill-opacity="1"
         id="text79">E</text>
      <path
         fill="#7d7dff"
         stroke="none"
         paint-order="stroke fill markers"
         d="m 908.71364,464.57836 c 0,2.76142 -2.23857,5 -5,5 -2.76142,0 -5,-2.23858 -5,-5 0,-2.76142 2.23858,-5 5,-5 2.76143,0 5,2.23858 5,5 z"
         fill-opacity="1"
         id="path81" />
      <path
         fill="none"
         stroke="#000000"
         paint-order="fill stroke markers"
         d="m 908.71364,464.57836 c 0,2.76142 -2.23857,5 -5,5 -2.76142,0 -5,-2.23858 -5,-5 0,-2.76142 2.23858,-5 5,-5 2.76143,0 5,2.23858 5,5 z"
         stroke-opacity="1"
         stroke-linecap="round"
         stroke-linejoin="round"
         stroke-miterlimit="10"
         id="path83" />
      <text
         fill="#7d7dff"
         stroke="none"
         font-family="geogebra-sans-serif, sans-serif"
         font-size="16px"
         font-style="normal"
         font-weight="normal"
         text-decoration="normal"
         x="908"
         y="455"
         text-anchor="start"
         dominant-baseline="alphabetic"
         fill-opacity="1"
         id="text85">F</text>
      <text
         fill="none"
         stroke="#ffffff"
         font-family="geogebra-sans-serif, sans-serif"
         font-size="16px"
         font-style="normal"
         font-weight="normal"
         text-decoration="normal"
         x="908"
         y="455"
         text-anchor="start"
         dominant-baseline="alphabetic"
         stroke-opacity="1"
         stroke-linejoin="bevel"
         stroke-miterlimit="10"
         stroke-width="3"
         id="text87">F</text>
      <text
         fill="#7d7dff"
         stroke="none"
         font-family="geogebra-sans-serif, sans-serif"
         font-size="16px"
         font-style="normal"
         font-weight="normal"
         text-decoration="normal"
         x="908"
         y="455"
         text-anchor="start"
         dominant-baseline="alphabetic"
         fill-opacity="1"
         id="text89">F</text>
      <path
         fill="#444444"
         stroke="none"
         paint-order="stroke fill markers"
         d="m 796.41023,416.60289 c 0,2.20914 -1.79086,4 -4,4 -2.20914,0 -4,-1.79086 -4,-4 0,-2.20914 1.79086,-4 4,-4 2.20914,0 4,1.79086 4,4 z"
         fill-opacity="1"
         id="path91" />
      <path
         fill="none"
         stroke="#000000"
         paint-order="fill stroke markers"
         d="m 796.41023,416.60289 c 0,2.20914 -1.79086,4 -4,4 -2.20914,0 -4,-1.79086 -4,-4 0,-2.20914 1.79086,-4 4,-4 2.20914,0 4,1.79086 4,4 z"
         stroke-opacity="1"
         stroke-linecap="round"
         stroke-linejoin="round"
         stroke-miterlimit="10"
         id="path93" />
      <text
         fill="#444444"
         stroke="none"
         font-family="geogebra-sans-serif, sans-serif"
         font-size="16px"
         font-style="normal"
         font-weight="normal"
         text-decoration="normal"
         x="796"
         y="409"
         text-anchor="start"
         dominant-baseline="alphabetic"
         fill-opacity="1"
         id="text95">G</text>
      <text
         fill="none"
         stroke="#ffffff"
         font-family="geogebra-sans-serif, sans-serif"
         font-size="16px"
         font-style="normal"
         font-weight="normal"
         text-decoration="normal"
         x="796"
         y="409"
         text-anchor="start"
         dominant-baseline="alphabetic"
         stroke-opacity="1"
         stroke-linejoin="bevel"
         stroke-miterlimit="10"
         stroke-width="3"
         id="text97">G</text>
      <text
         fill="#444444"
         stroke="none"
         font-family="geogebra-sans-serif, sans-serif"
         font-size="16px"
         font-style="normal"
         font-weight="normal"
         text-decoration="normal"
         x="796"
         y="409"
         text-anchor="start"
         dominant-baseline="alphabetic"
         fill-opacity="1"
         id="text99">G</text>
      <path
         fill="#7d7dff"
         stroke="none"
         paint-order="stroke fill markers"
         d="m 475.71264,253.30993 c 0,2.76142 -2.23857,5 -5,5 -2.76142,0 -5,-2.23858 -5,-5 0,-2.76142 2.23858,-5 5,-5 2.76143,0 5,2.23858 5,5 z"
         fill-opacity="1"
         id="path101" />
      <path
         fill="none"
         stroke="#000000"
         paint-order="fill stroke markers"
         d="m 475.71264,253.30993 c 0,2.76142 -2.23857,5 -5,5 -2.76142,0 -5,-2.23858 -5,-5 0,-2.76142 2.23858,-5 5,-5 2.76143,0 5,2.23858 5,5 z"
         stroke-opacity="1"
         stroke-linecap="round"
         stroke-linejoin="round"
         stroke-miterlimit="10"
         id="path103" />
      <text
         fill="#7d7dff"
         stroke="none"
         font-family="geogebra-sans-serif, sans-serif"
         font-size="16px"
         font-style="normal"
         font-weight="normal"
         text-decoration="normal"
         x="475"
         y="243"
         text-anchor="start"
         dominant-baseline="alphabetic"
         fill-opacity="1"
         id="text105">H</text>
      <text
         fill="none"
         stroke="#ffffff"
         font-family="geogebra-sans-serif, sans-serif"
         font-size="16px"
         font-style="normal"
         font-weight="normal"
         text-decoration="normal"
         x="475"
         y="243"
         text-anchor="start"
         dominant-baseline="alphabetic"
         stroke-opacity="1"
         stroke-linejoin="bevel"
         stroke-miterlimit="10"
         stroke-width="3"
         id="text107">H</text>
      <text
         fill="#7d7dff"
         stroke="none"
         font-family="geogebra-sans-serif, sans-serif"
         font-size="16px"
         font-style="normal"
         font-weight="normal"
         text-decoration="normal"
         x="475"
         y="243"
         text-anchor="start"
         dominant-baseline="alphabetic"
         fill-opacity="1"
         id="text109">H</text>
      <path
         fill="#7d7dff"
         stroke="none"
         paint-order="stroke fill markers"
         d="m 269.63024,253.37949 c 0,2.76142 -2.23858,5 -5,5 -2.76142,0 -5,-2.23858 -5,-5 0,-2.76142 2.23858,-5 5,-5 2.76142,0 5,2.23858 5,5 z"
         fill-opacity="1"
         id="path111" />
      <path
         fill="none"
         stroke="#000000"
         paint-order="fill stroke markers"
         d="m 269.63024,253.37949 c 0,2.76142 -2.23858,5 -5,5 -2.76142,0 -5,-2.23858 -5,-5 0,-2.76142 2.23858,-5 5,-5 2.76142,0 5,2.23858 5,5 z"
         stroke-opacity="1"
         stroke-linecap="round"
         stroke-linejoin="round"
         stroke-miterlimit="10"
         id="path113" />
      <text
         fill="#7d7dff"
         stroke="none"
         font-family="geogebra-sans-serif, sans-serif"
         font-size="16px"
         font-style="normal"
         font-weight="normal"
         text-decoration="normal"
         x="269"
         y="243"
         text-anchor="start"
         dominant-baseline="alphabetic"
         fill-opacity="1"
         id="text115">K</text>
      <text
         fill="none"
         stroke="#ffffff"
         font-family="geogebra-sans-serif, sans-serif"
         font-size="16px"
         font-style="normal"
         font-weight="normal"
         text-decoration="normal"
         x="269"
         y="243"
         text-anchor="start"
         dominant-baseline="alphabetic"
         stroke-opacity="1"
         stroke-linejoin="bevel"
         stroke-miterlimit="10"
         stroke-width="3"
         id="text117">K</text>
      <text
         fill="#7d7dff"
         stroke="none"
         font-family="geogebra-sans-serif, sans-serif"
         font-size="16px"
         font-style="normal"
         font-weight="normal"
         text-decoration="normal"
         x="269"
         y="243"
         text-anchor="start"
         dominant-baseline="alphabetic"
         fill-opacity="1"
         id="text119">K</text>
      <path
         fill="#444444"
         stroke="none"
         paint-order="stroke fill markers"
         d="m 573.61659,582.56142 c 0,2.20914 -1.79086,4 -4,4 -2.20914,0 -4,-1.79086 -4,-4 0,-2.20914 1.79086,-4 4,-4 2.20914,0 4,1.79086 4,4 z"
         fill-opacity="1"
         id="path121" />
      <path
         fill="none"
         stroke="#000000"
         paint-order="fill stroke markers"
         d="m 573.61659,582.56142 c 0,2.20914 -1.79086,4 -4,4 -2.20914,0 -4,-1.79086 -4,-4 0,-2.20914 1.79086,-4 4,-4 2.20914,0 4,1.79086 4,4 z"
         stroke-opacity="1"
         stroke-linecap="round"
         stroke-linejoin="round"
         stroke-miterlimit="10"
         id="path123" />
      <text
         fill="#444444"
         stroke="none"
         font-family="geogebra-sans-serif, sans-serif"
         font-size="16px"
         font-style="normal"
         font-weight="normal"
         text-decoration="normal"
         x="574"
         y="575"
         text-anchor="start"
         dominant-baseline="alphabetic"
         fill-opacity="1"
         id="text125">L</text>
      <text
         fill="none"
         stroke="#ffffff"
         font-family="geogebra-sans-serif, sans-serif"
         font-size="16px"
         font-style="normal"
         font-weight="normal"
         text-decoration="normal"
         x="574"
         y="575"
         text-anchor="start"
         dominant-baseline="alphabetic"
         stroke-opacity="1"
         stroke-linejoin="bevel"
         stroke-miterlimit="10"
         stroke-width="3"
         id="text127">L</text>
      <text
         fill="#444444"
         stroke="none"
         font-family="geogebra-sans-serif, sans-serif"
         font-size="16px"
         font-style="normal"
         font-weight="normal"
         text-decoration="normal"
         x="574"
         y="575"
         text-anchor="start"
         dominant-baseline="alphabetic"
         fill-opacity="1"
         id="text129">L</text>
    </g>
  </g>
</svg>
